SplineFontDB: 3.2
FontName: WTKoreajaSPUA
FullName: WT Koreaja SPUA
FamilyName: WT Koreaja SPUA
Weight: Regular
Copyright: Copyright (c) 2025, Werconian Type. Added rare Hanja characters from zi.tools.
UComments: "2025-8-5: Created with FontForge (http://fontforge.org)"
Version: v1.0 Werconian Type
ItalicAngle: 0
UnderlinePosition: -101.562
UnderlineWidth: 50.7812
Ascent: 801
Descent: 199
InvalidEm: 0
sfntRevision: 0x00010000
LayerCount: 2
Layer: 0 0 "Back" 1
Layer: 1 0 "Fore" 0
XUID: [1021 318 329363189 19794]
OS2Version: 0
OS2_WeightWidthSlopeOnly: 0
OS2_UseTypoMetrics: 1
CreationTime: 1754390907
ModificationTime: 1754391633
OS2TypoAscent: 0
OS2TypoAOffset: 1
OS2TypoDescent: 0
OS2TypoDOffset: 1
OS2TypoLinegap: 0
OS2WinAscent: 0
OS2WinAOffset: 1
OS2WinDescent: 0
OS2WinDOffset: 1
HheadAscent: 0
HheadAOffset: 1
HheadDescent: 0
HheadDOffset: 1
OS2Vendor: 'PfEd'
Lookup: 3 0 0 "NotoSansKR-Regular-'aalt' Access All Alternates lookup 1" { "NotoSansKR-Regular-'aalt' Access All Alternates lookup 1 subtable"  } ['aalt' ('DFLT' <'dflt' > 'cyrl' <'KOR ' 'dflt' > 'grek' <'KOR ' 'dflt' > 'hang' <'KOR ' 'dflt' > 'hani' <'KOR ' 'dflt' > 'kana' <'KOR ' 'dflt' > 'latn' <'KOR ' 'dflt' > ) ]
Lookup: 1 0 0 "NotoSansKR-Regular-'fwid' Full Widths lookup 34" { "NotoSansKR-Regular-'fwid' Full Widths lookup 34 subtable"  } ['fwid' ('DFLT' <'dflt' > 'cyrl' <'KOR ' 'dflt' > 'grek' <'KOR ' 'dflt' > 'hang' <'KOR ' 'dflt' > 'hani' <'KOR ' 'dflt' > 'kana' <'KOR ' 'dflt' > 'latn' <'KOR ' 'dflt' > ) ]
Lookup: 1 0 0 "NotoSansKR-Regular-'hwid' Half Widths lookup 35" { "NotoSansKR-Regular-'hwid' Half Widths lookup 35 subtable"  } ['hwid' ('DFLT' <'dflt' > 'cyrl' <'KOR ' 'dflt' > 'grek' <'KOR ' 'dflt' > 'hang' <'KOR ' 'dflt' > 'hani' <'KOR ' 'dflt' > 'kana' <'KOR ' 'dflt' > 'latn' <'KOR ' 'dflt' > ) ]
Lookup: 1 0 0 "NotoSansKR-Regular-'locl' Localized Forms lookup 38" { "NotoSansKR-Regular-'locl' Localized Forms lookup 38 subtable"  } ['locl' ('cyrl' <'dflt' > 'grek' <'dflt' > 'latn' <'dflt' > ) ]

StartChar: exclam
Encoding: 33 33 0
Width: 323
Flags: HW
LayerCount: 2
Fore
SplineSet
130 221 m 1
 117 645 l 1
 115 749 l 1
 207 749 l 1
 205 645 l 1
 193 221 l 1
 130 221 l 1
161 -13 m 0
 143 -13 127.5 -6.5 114.5 6.5 c 128
 101.5 19.5 95 36 95 56 c 0
 95 77.3333333333 101.5 94.3333333333 114.5 107 c 128
 127.5 119.666666667 143 126 161 126 c 0
 179.666666667 126 195.333333333 119.666666667 208 107 c 128
 220.666666667 94.3333333333 227 77.3333333333 227 56 c 0
 227 36 220.666666667 19.5 208 6.5 c 128
 195.333333333 -6.5 179.666666667 -13 161 -13 c 0
EndSplineSet
Substitution2: "NotoSansKR-Regular-'locl' Localized Forms lookup 39 subtable" exclam.locl
Substitution2: "NotoSansKR-Regular-'hwid' Half Widths lookup 35 subtable" exclam.hwid
Substitution2: "NotoSansKR-Regular-'fwid' Full Widths lookup 34 subtable" uniFF01
AlternateSubs2: "NotoSansKR-Regular-'aalt' Access All Alternates lookup 1 subtable" uniFF01 exclam.hwid
EndChar

StartChar: quotedbl
Encoding: 34 34 1
Width: 474
Flags: HW
LayerCount: 2
Fore
SplineSet
110 483 m 1
 92 669 l 1
 90 771 l 1
 186 771 l 1
 184 669 l 1
 167 483 l 1
 110 483 l 1
307 483 m 1
 288 669 l 1
 286 771 l 1
 383 771 l 1
 381 669 l 1
 362 483 l 1
 307 483 l 1
EndSplineSet
Substitution2: "NotoSansKR-Regular-'locl' Localized Forms lookup 39 subtable" quotedbl.locl
Substitution2: "NotoSansKR-Regular-'hwid' Half Widths lookup 35 subtable" quotedbl.hwid
Substitution2: "NotoSansKR-Regular-'fwid' Full Widths lookup 34 subtable" uniFF02
AlternateSubs2: "NotoSansKR-Regular-'aalt' Access All Alternates lookup 1 subtable" uniFF02 quotedbl.hwid
EndChar

StartChar: numbersign
Encoding: 35 35 2
Width: 555
Flags: HW
LayerCount: 2
Fore
SplineSet
101 0 m 1
 128 229 l 1
 40 229 l 1
 40 292 l 1
 136 292 l 1
 157 458 l 1
 62 458 l 1
 62 521 l 1
 164 521 l 1
 190 726 l 1
 249 726 l 1
 223 521 l 1
 372 521 l 1
 398 726 l 1
 458 726 l 1
 432 521 l 1
 522 521 l 1
 522 458 l 1
 425 458 l 1
 404 292 l 1
 500 292 l 1
 500 229 l 1
 396 229 l 1
 369 0 l 1
 309 0 l 1
 336 229 l 1
 188 229 l 1
 160 0 l 1
 101 0 l 1
195 292 m 1
 344 292 l 1
 365 458 l 1
 216 458 l 1
 195 292 l 1
EndSplineSet
Substitution2: "NotoSansKR-Regular-'hwid' Half Widths lookup 35 subtable" numbersign.hwid
Substitution2: "NotoSansKR-Regular-'fwid' Full Widths lookup 34 subtable" uniFF03
AlternateSubs2: "NotoSansKR-Regular-'aalt' Access All Alternates lookup 1 subtable" uniFF03 numbersign.hwid
EndChar

StartChar: dollar
Encoding: 36 36 3
Width: 555
Flags: HW
LayerCount: 2
Fore
SplineSet
273 -13 m 0
 246.333333333 -13 219.833333333 -9.16666666667 193.5 -1.5 c 128
 167.166666667 6.16666666667 142.333333333 16.6666666667 119 30 c 128
 95.6666666667 43.3333333333 75.3333333333 58 58 74 c 1
 101 137 l 1
 125 116.333333333 151.166666667 98.8333333333 179.5 84.5 c 128
 207.833333333 70.1666666667 239 63 273 63 c 0
 315 63 346.5 73.3333333333 367.5 94 c 128
 388.5 114.666666667 399 142.666666667 399 178 c 0
 399 204 393.333333333 226 382 244 c 128
 370.666666667 262 355.666666667 277.666666667 337 291 c 128
 318.333333333 304.333333333 298 316.666666667 276 328 c 128
 254 339.333333333 232 350.833333333 210 362.5 c 128
 188 374.166666667 167.666666667 387.666666667 149 403 c 128
 130.333333333 418.333333333 115.333333333 436.833333333 104 458.5 c 128
 92.6666666667 480.166666667 87 506.333333333 87 537 c 0
 87 575 95.5 608.166666667 112.5 636.5 c 128
 129.5 664.833333333 152.833333333 686.833333333 182.5 702.5 c 128
 212.166666667 718.166666667 246.333333333 726 285 726 c 0
 329.666666667 726 366.5 717.833333333 395.5 701.5 c 128
 424.5 685.166666667 450.333333333 665 473 641 c 1
 424 587 l 1
 403.333333333 607 383.166666667 622.5 363.5 633.5 c 128
 343.833333333 644.5 318.666666667 650 288 650 c 0
 253.333333333 650 225.833333333 640.166666667 205.5 620.5 c 128
 185.166666667 600.833333333 175 574.666666667 175 542 c 0
 175 518.666666667 180.833333333 499.166666667 192.5 483.5 c 128
 204.166666667 467.833333333 219.166666667 454 237.5 442 c 128
 255.833333333 430 276 418.666666667 298 408 c 128
 320 397.333333333 342.166666667 386 364.5 374 c 128
 386.833333333 362 407.166666667 347.833333333 425.5 331.5 c 128
 443.833333333 315.166666667 458.833333333 295.166666667 470.5 271.5 c 128
 482.166666667 247.833333333 488 218.666666667 488 184 c 0
 488 144.666666667 479.166666667 110.166666667 461.5 80.5 c 128
 443.833333333 50.8333333333 419 27.8333333333 387 11.5 c 128
 355 -4.83333333333 317 -13 273 -13 c 0
249 -123 m 1
 249 19 l 1
 315 19 l 1
 315 -123 l 1
 249 -123 l 1
249 692 m 1
 249 836 l 1
 315 836 l 1
 315 692 l 1
 249 692 l 1
EndSplineSet
Substitution2: "NotoSansKR-Regular-'hwid' Half Widths lookup 35 subtable" dollar.hwid
Substitution2: "NotoSansKR-Regular-'fwid' Full Widths lookup 34 subtable" uniFF04
AlternateSubs2: "NotoSansKR-Regular-'aalt' Access All Alternates lookup 1 subtable" uniFF04 dollar.hwid
EndChar

StartChar: percent
Encoding: 37 37 4
Width: 921
Flags: HW
LayerCount: 2
Fore
SplineSet
205 284 m 0
 171.666666667 284 142.5 293.166666667 117.5 311.5 c 128
 92.5 329.833333333 73.1666666667 356.333333333 59.5 391 c 128
 45.8333333333 425.666666667 39 467.666666667 39 517 c 256
 39 566.333333333 45.8333333333 608 59.5 642 c 128
 73.1666666667 676 92.5 701.833333333 117.5 719.5 c 128
 142.5 737.166666667 171.666666667 746 205 746 c 0
 239 746 268.5 737.166666667 293.5 719.5 c 128
 318.5 701.833333333 337.833333333 676 351.5 642 c 128
 365.166666667 608 372 566.333333333 372 517 c 256
 372 467.666666667 365.166666667 425.666666667 351.5 391 c 128
 337.833333333 356.333333333 318.5 329.833333333 293.5 311.5 c 128
 268.5 293.166666667 239 284 205 284 c 0
205 340 m 0
 234.333333333 340 257.833333333 354.833333333 275.5 384.5 c 128
 293.166666667 414.166666667 302 458.333333333 302 517 c 256
 302 575.666666667 293.166666667 619.166666667 275.5 647.5 c 128
 257.833333333 675.833333333 234.333333333 690 205 690 c 0
 176.333333333 690 153 675.833333333 135 647.5 c 128
 117 619.166666667 108 575.666666667 108 517 c 256
 108 458.333333333 117 414.166666667 135 384.5 c 128
 153 354.833333333 176.333333333 340 205 340 c 0
226 -13 m 1
 631 746 l 1
 693 746 l 1
 288 -13 l 1
 226 -13 l 1
716 -13 m 256
 682.666666667 -13 653.5 -4 628.5 14 c 128
 603.5 32 584.166666667 58.3333333333 570.5 93 c 128
 556.833333333 127.666666667 550 169.666666667 550 219 c 256
 550 268.333333333 556.833333333 310 570.5 344 c 128
 584.166666667 378 603.5 404 628.5 422 c 128
 653.5 440 682.666666667 449 716 449 c 256
 749.333333333 449 778.5 440 803.5 422 c 128
 828.5 404 847.833333333 378 861.5 344 c 128
 875.166666667 310 882 268.333333333 882 219 c 256
 882 169.666666667 875.166666667 127.666666667 861.5 93 c 128
 847.833333333 58.3333333333 828.5 32 803.5 14 c 128
 778.5 -4 749.333333333 -13 716 -13 c 256
716 43 m 256
 744.666666667 43 768.166666667 57.6666666667 786.5 87 c 128
 804.833333333 116.333333333 814 160.333333333 814 219 c 256
 814 277.666666667 804.833333333 321.333333333 786.5 350 c 128
 768.166666667 378.666666667 744.666666667 393 716 393 c 256
 687.333333333 393 663.833333333 378.666666667 645.5 350 c 128
 627.166666667 321.333333333 618 277.666666667 618 219 c 256
 618 160.333333333 627.166666667 116.333333333 645.5 87 c 128
 663.833333333 57.6666666667 687.333333333 43 716 43 c 256
EndSplineSet
Substitution2: "NotoSansKR-Regular-'hwid' Half Widths lookup 35 subtable" percent.hwid
Substitution2: "NotoSansKR-Regular-'fwid' Full Widths lookup 34 subtable" uniFF05
AlternateSubs2: "NotoSansKR-Regular-'aalt' Access All Alternates lookup 1 subtable" uniFF05 percent.hwid
EndChar

StartChar: ampersand
Encoding: 38 38 5
Width: 680
Flags: HW
LayerCount: 2
Fore
SplineSet
259 -13 m 0
 215.666666667 -13 177 -4.33333333333 143 13 c 128
 109 30.3333333333 82.6666666667 54.3333333333 64 85 c 128
 45.3333333333 115.666666667 36 150.666666667 36 190 c 0
 36 226 44 257.666666667 60 285 c 128
 76 312.333333333 96.8333333333 336.666666667 122.5 358 c 128
 148.166666667 379.333333333 175.166666667 399.166666667 203.5 417.5 c 128
 231.833333333 435.833333333 258.666666667 454 284 472 c 128
 309.333333333 490 330.166666667 509.333333333 346.5 530 c 128
 362.833333333 550.666666667 371 574 371 600 c 0
 371 614.666666667 368.5 628.166666667 363.5 640.5 c 128
 358.5 652.833333333 351 662.833333333 341 670.5 c 128
 331 678.166666667 318 682 302 682 c 0
 274 682 251.833333333 671.666666667 235.5 651 c 128
 219.166666667 630.333333333 211 605 211 575 c 0
 211 540.333333333 219.333333333 503.833333333 236 465.5 c 128
 252.666666667 427.166666667 275.166666667 388.666666667 303.5 350 c 128
 331.833333333 311.333333333 363.333333333 274.833333333 398 240.5 c 128
 432.666666667 206.166666667 467.333333333 176 502 150 c 0
 530.666666667 128 558.833333333 109.666666667 586.5 95 c 128
 614.166666667 80.3333333333 639.666666667 69.6666666667 663 63 c 1
 639 -13 l 1
 609.666666667 -5 578.833333333 7.5 546.5 24.5 c 128
 514.166666667 41.5 481 62.6666666667 447 88 c 0
 407 119.333333333 368.333333333 155 331 195 c 128
 293.666666667 235 260.166666667 276.5 230.5 319.5 c 128
 200.833333333 362.5 177.166666667 406 159.5 450 c 128
 141.833333333 494 133 535.333333333 133 574 c 0
 133 606 140 635 154 661 c 128
 168 687 187.666666667 707.666666667 213 723 c 128
 238.333333333 738.333333333 267.666666667 746 301 746 c 0
 346.333333333 746 381.666666667 732.666666667 407 706 c 128
 432.333333333 679.333333333 445 644.666666667 445 602 c 0
 445 570.666666667 437.166666667 542.5 421.5 517.5 c 128
 405.833333333 492.5 386 469.5 362 448.5 c 128
 338 427.5 312.333333333 407.5 285 388.5 c 128
 257.666666667 369.5 231.833333333 350.166666667 207.5 330.5 c 128
 183.166666667 310.833333333 163.333333333 290 148 268 c 128
 132.666666667 246 125 221.666666667 125 195 c 256
 125 168.333333333 131.333333333 144.666666667 144 124 c 128
 156.666666667 103.333333333 174 87.5 196 76.5 c 128
 218 65.5 242.666666667 60 270 60 c 0
 300.666666667 60 330.166666667 68 358.5 84 c 128
 386.833333333 100 413.333333333 120.333333333 438 145 c 0
 468 177.666666667 494 215 516 257 c 128
 538 299 555.666666667 345 569 395 c 1
 654 395 l 1
 638.666666667 340.333333333 618.166666667 288.166666667 592.5 238.5 c 128
 566.833333333 188.833333333 536.333333333 143.333333333 501 102 c 0
 470.333333333 68 435.166666667 40.3333333333 395.5 19 c 128
 355.833333333 -2.33333333333 310.333333333 -13 259 -13 c 0
EndSplineSet
Substitution2: "NotoSansKR-Regular-'hwid' Half Widths lookup 35 subtable" ampersand.hwid
Substitution2: "NotoSansKR-Regular-'fwid' Full Widths lookup 34 subtable" uniFF06
AlternateSubs2: "NotoSansKR-Regular-'aalt' Access All Alternates lookup 1 subtable" uniFF06 ampersand.hwid
EndChar

StartChar: quotesingle
Encoding: 39 39 6
Width: 278
Flags: HW
LayerCount: 2
Fore
SplineSet
110 483 m 1
 92 669 l 1
 90 771 l 1
 186 771 l 1
 184 669 l 1
 167 483 l 1
 110 483 l 1
EndSplineSet
Substitution2: "NotoSansKR-Regular-'locl' Localized Forms lookup 39 subtable" quotesingle.locl
Substitution2: "NotoSansKR-Regular-'hwid' Half Widths lookup 35 subtable" quotesingle.hwid
Substitution2: "NotoSansKR-Regular-'fwid' Full Widths lookup 34 subtable" uniFF07
AlternateSubs2: "NotoSansKR-Regular-'aalt' Access All Alternates lookup 1 subtable" uniFF07 quotesingle.hwid
EndChar

StartChar: parenleft
Encoding: 40 40 7
Width: 338
Flags: HW
LayerCount: 2
Fore
SplineSet
239 -196 m 1
 193 -121.333333333 157 -42.8333333333 131 39.5 c 128
 105 121.833333333 92 212.333333333 92 311 c 0
 92 409 105 499.333333333 131 582 c 128
 157 664.666666667 193 743.333333333 239 818 c 1
 295 792 l 1
 252.333333333 720.666666667 220.5 643.833333333 199.5 561.5 c 128
 178.5 479.166666667 168 395.666666667 168 311 c 0
 168 225.666666667 178.5 141.833333333 199.5 59.5 c 128
 220.5 -22.8333333333 252.333333333 -99.6666666667 295 -171 c 1
 239 -196 l 1
EndSplineSet
Substitution2: "NotoSansKR-Regular-'locl' Localized Forms lookup 39 subtable" parenleft.locl
Substitution2: "NotoSansKR-Regular-'hwid' Half Widths lookup 35 subtable" parenleft.hwid
Substitution2: "NotoSansKR-Regular-'fwid' Full Widths lookup 34 subtable" uniFF08
AlternateSubs2: "NotoSansKR-Regular-'aalt' Access All Alternates lookup 1 subtable" uniFF08 parenleft.hwid
EndChar

StartChar: parenright
Encoding: 41 41 8
Width: 338
Flags: HW
LayerCount: 2
Fore
SplineSet
99 -196 m 1
 42 -171 l 1
 85.3333333333 -99.6666666667 117.666666667 -22.8333333333 139 59.5 c 128
 160.333333333 141.833333333 171 225.666666667 171 311 c 0
 171 395.666666667 160.333333333 479.166666667 139 561.5 c 128
 117.666666667 643.833333333 85.3333333333 720.666666667 42 792 c 1
 99 818 l 1
 145.666666667 743.333333333 181.833333333 664.666666667 207.5 582 c 128
 233.166666667 499.333333333 246 409 246 311 c 0
 246 212.333333333 233.166666667 121.833333333 207.5 39.5 c 128
 181.833333333 -42.8333333333 145.666666667 -121.333333333 99 -196 c 1
EndSplineSet
Substitution2: "NotoSansKR-Regular-'locl' Localized Forms lookup 39 subtable" parenright.locl
Substitution2: "NotoSansKR-Regular-'hwid' Half Widths lookup 35 subtable" parenright.hwid
Substitution2: "NotoSansKR-Regular-'fwid' Full Widths lookup 34 subtable" uniFF09
AlternateSubs2: "NotoSansKR-Regular-'aalt' Access All Alternates lookup 1 subtable" uniFF09 parenright.hwid
EndChar

StartChar: asterisk
Encoding: 42 42 9
Width: 467
Flags: HW
LayerCount: 2
Fore
SplineSet
154 471 m 1
 110 502 l 1
 173 607 l 1
 65 653 l 1
 82 704 l 1
 196 675 l 1
 206 796 l 1
 260 796 l 1
 270 676 l 1
 384 704 l 1
 401 653 l 1
 292 607 l 1
 356 502 l 1
 312 471 l 1
 234 566 l 1
 154 471 l 1
EndSplineSet
Substitution2: "NotoSansKR-Regular-'hwid' Half Widths lookup 35 subtable" asterisk.hwid
Substitution2: "NotoSansKR-Regular-'fwid' Full Widths lookup 34 subtable" uniFF0A
AlternateSubs2: "NotoSansKR-Regular-'aalt' Access All Alternates lookup 1 subtable" uniFF0A asterisk.hwid
EndChar

StartChar: plus
Encoding: 43 43 10
Width: 555
Flags: HW
LayerCount: 2
Fore
SplineSet
241 116 m 1
 241 335 l 1
 38 335 l 1
 38 403 l 1
 241 403 l 1
 241 622 l 1
 314 622 l 1
 314 403 l 1
 518 403 l 1
 518 335 l 1
 314 335 l 1
 314 116 l 1
 241 116 l 1
EndSplineSet
Substitution2: "NotoSansKR-Regular-'hwid' Half Widths lookup 35 subtable" plus.hwid
Substitution2: "NotoSansKR-Regular-'fwid' Full Widths lookup 34 subtable" uniFF0B
AlternateSubs2: "NotoSansKR-Regular-'aalt' Access All Alternates lookup 1 subtable" uniFF0B plus.hwid
EndChar

StartChar: comma
Encoding: 44 44 11
Width: 278
Flags: HW
LayerCount: 2
Fore
SplineSet
75 -190 m 1
 53 -136 l 1
 84.3333333333 -122 109 -103 127 -79 c 128
 145 -55 153.666666667 -27.6666666667 153 3 c 1
 143 85 l 1
 188 18 l 1
 181.333333333 10.6666666667 174.166666667 5.5 166.5 2.5 c 128
 158.833333333 -0.5 150.666666667 -2 142 -2 c 0
 124 -2 108.333333333 3.66666666667 95 15 c 128
 81.6666666667 26.3333333333 75 42 75 62 c 256
 75 82 81.8333333333 97.6666666667 95.5 109 c 128
 109.166666667 120.333333333 125.333333333 126 144 126 c 0
 168 126 186.833333333 116.5 200.5 97.5 c 128
 214.166666667 78.5 221 52.3333333333 221 19 c 0
 221 -29 207.833333333 -71 181.5 -107 c 128
 155.166666667 -143 119.666666667 -170.666666667 75 -190 c 1
EndSplineSet
Substitution2: "NotoSansKR-Regular-'locl' Localized Forms lookup 39 subtable" comma.locl
Substitution2: "NotoSansKR-Regular-'hwid' Half Widths lookup 35 subtable" comma.hwid
Substitution2: "NotoSansKR-Regular-'fwid' Full Widths lookup 34 subtable" uniFF0C
AlternateSubs2: "NotoSansKR-Regular-'aalt' Access All Alternates lookup 1 subtable" uniFF0C comma.hwid
EndChar

StartChar: hyphen
Encoding: 45 45 12
Width: 347
Flags: HW
LayerCount: 2
Fore
SplineSet
46 245 m 1
 46 315 l 1
 303 315 l 1
 303 245 l 1
 46 245 l 1
EndSplineSet
Substitution2: "NotoSansKR-Regular-'locl' Localized Forms lookup 39 subtable" hyphen.locl
Substitution2: "NotoSansKR-Regular-'hwid' Half Widths lookup 35 subtable" hyphen.hwid
Substitution2: "NotoSansKR-Regular-'fwid' Full Widths lookup 34 subtable" uniFF0D
AlternateSubs2: "NotoSansKR-Regular-'aalt' Access All Alternates lookup 1 subtable" uniFF0D hyphen.hwid
EndChar

StartChar: period
Encoding: 46 46 13
Width: 278
Flags: HW
LayerCount: 2
Fore
SplineSet
139 -13 m 256
 121 -13 105.5 -6.5 92.5 6.5 c 128
 79.5 19.5 73 36 73 56 c 0
 73 77.3333333333 79.5 94.3333333333 92.5 107 c 128
 105.5 119.666666667 121 126 139 126 c 256
 157 126 172.5 119.666666667 185.5 107 c 128
 198.5 94.3333333333 205 77.3333333333 205 56 c 0
 205 36 198.5 19.5 185.5 6.5 c 128
 172.5 -6.5 157 -13 139 -13 c 256
EndSplineSet
Substitution2: "NotoSansKR-Regular-'locl' Localized Forms lookup 39 subtable" period.locl
Substitution2: "NotoSansKR-Regular-'hwid' Half Widths lookup 35 subtable" period.hwid
Substitution2: "NotoSansKR-Regular-'fwid' Full Widths lookup 34 subtable" uniFF0E
AlternateSubs2: "NotoSansKR-Regular-'aalt' Access All Alternates lookup 1 subtable" uniFF0E period.hwid
EndChar

StartChar: slash
Encoding: 47 47 14
Width: 392
Flags: HW
LayerCount: 2
Fore
SplineSet
11 -179 m 1
 311 794 l 1
 377 794 l 1
 78 -179 l 1
 11 -179 l 1
EndSplineSet
Substitution2: "NotoSansKR-Regular-'locl' Localized Forms lookup 39 subtable" slash.locl
Substitution2: "NotoSansKR-Regular-'hwid' Half Widths lookup 35 subtable" slash.hwid
Substitution2: "NotoSansKR-Regular-'fwid' Full Widths lookup 34 subtable" uni2215
AlternateSubs2: "NotoSansKR-Regular-'aalt' Access All Alternates lookup 1 subtable" uni2215 slash.hwid
EndChar

StartChar: zero
Encoding: 48 48 15
Width: 555
Flags: HW
LayerCount: 2
Fore
SplineSet
278 -13 m 0
 232 -13 191.833333333 1 157.5 29 c 128
 123.166666667 57 96.6666666667 99.3333333333 78 156 c 128
 59.3333333333 212.666666667 50 283.666666667 50 369 c 256
 50 454.333333333 59.3333333333 524.833333333 78 580.5 c 128
 96.6666666667 636.166666667 123.166666667 677.666666667 157.5 705 c 128
 191.833333333 732.333333333 232 746 278 746 c 0
 324.666666667 746 365 732.166666667 399 704.5 c 128
 433 676.833333333 459.333333333 635.333333333 478 580 c 128
 496.666666667 524.666666667 506 454.333333333 506 369 c 256
 506 283.666666667 496.666666667 212.666666667 478 156 c 128
 459.333333333 99.3333333333 433 57 399 29 c 128
 365 1 324.666666667 -13 278 -13 c 0
278 61 m 0
 306 61 330.5 71.6666666667 351.5 93 c 128
 372.5 114.333333333 388.833333333 147.833333333 400.5 193.5 c 128
 412.166666667 239.166666667 418 297.666666667 418 369 c 256
 418 440.333333333 412.166666667 498.5 400.5 543.5 c 128
 388.833333333 588.5 372.5 621.5 351.5 642.5 c 128
 330.5 663.5 306 674 278 674 c 0
 250.666666667 674 226.333333333 663.5 205 642.5 c 128
 183.666666667 621.5 167.166666667 588.5 155.5 543.5 c 128
 143.833333333 498.5 138 440.333333333 138 369 c 256
 138 297.666666667 143.833333333 239.166666667 155.5 193.5 c 128
 167.166666667 147.833333333 183.666666667 114.333333333 205 93 c 128
 226.333333333 71.6666666667 250.666666667 61 278 61 c 0
EndSplineSet
Substitution2: "NotoSansKR-Regular-'locl' Localized Forms lookup 38 subtable" zero.locl
Substitution2: "NotoSansKR-Regular-'hwid' Half Widths lookup 35 subtable" zero.hwid
Substitution2: "NotoSansKR-Regular-'fwid' Full Widths lookup 34 subtable" uniFF10
AlternateSubs2: "NotoSansKR-Regular-'aalt' Access All Alternates lookup 1 subtable" uniFF10 zero.hwid
EndChar

StartChar: one
Encoding: 49 49 16
Width: 555
Flags: HW
LayerCount: 2
Fore
SplineSet
88 0 m 1
 88 76 l 1
 252 76 l 1
 252 623 l 1
 121 623 l 1
 121 681 l 1
 153.666666667 687 182.166666667 694.333333333 206.5 703 c 128
 230.833333333 711.666666667 253 721.666666667 273 733 c 1
 343 733 l 1
 343 76 l 1
 490 76 l 1
 490 0 l 1
 88 0 l 1
EndSplineSet
Substitution2: "NotoSansKR-Regular-'locl' Localized Forms lookup 38 subtable" one.locl
Substitution2: "NotoSansKR-Regular-'hwid' Half Widths lookup 35 subtable" one.hwid
Substitution2: "NotoSansKR-Regular-'fwid' Full Widths lookup 34 subtable" uniFF11
AlternateSubs2: "NotoSansKR-Regular-'aalt' Access All Alternates lookup 1 subtable" uniFF11 one.hwid
EndChar

StartChar: two
Encoding: 50 50 17
Width: 555
Flags: HW
LayerCount: 2
Fore
SplineSet
44 0 m 1
 44 54 l 1
 120.666666667 121.333333333 183.833333333 182.666666667 233.5 238 c 128
 283.166666667 293.333333333 320 344.833333333 344 392.5 c 128
 368 440.166666667 380 485 380 527 c 0
 380 555 375.166666667 580 365.5 602 c 128
 355.833333333 624 341 641.166666667 321 653.5 c 128
 301 665.833333333 275.666666667 672 245 672 c 0
 215 672 187.166666667 664 161.5 648 c 128
 135.833333333 632 113 611.666666667 93 587 c 1
 40 639 l 1
 69.3333333333 671.666666667 101 697.666666667 135 717 c 128
 169 736.333333333 209.333333333 746 256 746 c 0
 300 746 337.833333333 737.166666667 369.5 719.5 c 128
 401.166666667 701.833333333 425.833333333 676.833333333 443.5 644.5 c 128
 461.166666667 612.166666667 470 574.333333333 470 531 c 0
 470 482.333333333 457.833333333 433 433.5 383 c 128
 409.166666667 333 375.5 282.166666667 332.5 230.5 c 128
 289.5 178.833333333 239.333333333 126 182 72 c 1
 201.333333333 73.3333333333 221.5 74.8333333333 242.5 76.5 c 128
 263.5 78.1666666667 283.333333333 79 302 79 c 2
 505 79 l 1
 505 0 l 1
 44 0 l 1
EndSplineSet
Substitution2: "NotoSansKR-Regular-'locl' Localized Forms lookup 38 subtable" two.locl
Substitution2: "NotoSansKR-Regular-'hwid' Half Widths lookup 35 subtable" two.hwid
Substitution2: "NotoSansKR-Regular-'fwid' Full Widths lookup 34 subtable" uniFF12
AlternateSubs2: "NotoSansKR-Regular-'aalt' Access All Alternates lookup 1 subtable" uniFF12 two.hwid
EndChar

StartChar: three
Encoding: 51 51 18
Width: 555
Flags: HW
LayerCount: 2
Fore
SplineSet
263 -13 m 0
 225 -13 191.5 -8.33333333333 162.5 1 c 128
 133.5 10.3333333333 108 22.6666666667 86 38 c 128
 64 53.3333333333 45 70 29 88 c 1
 76 147 l 1
 97.3333333333 125 122.5 105.5 151.5 88.5 c 128
 180.5 71.5 215.666666667 63 257 63 c 0
 286.333333333 63 312.166666667 68.5 334.5 79.5 c 128
 356.833333333 90.5 374.333333333 106.166666667 387 126.5 c 128
 399.666666667 146.833333333 406 171 406 199 c 0
 406 228.333333333 398.833333333 254 384.5 276 c 128
 370.166666667 298 346.333333333 315.166666667 313 327.5 c 128
 279.666666667 339.833333333 234.666666667 346 178 346 c 1
 178 416 l 1
 228.666666667 416 268.666666667 422.166666667 298 434.5 c 128
 327.333333333 446.833333333 348.5 463.666666667 361.5 485 c 128
 374.5 506.333333333 381 530 381 556 c 0
 381 591.333333333 370 619.5 348 640.5 c 128
 326 661.5 295.666666667 672 257 672 c 0
 227.666666667 672 200.166666667 665.333333333 174.5 652 c 128
 148.833333333 638.666666667 125.666666667 621.666666667 105 601 c 1
 56 659 l 1
 84 684.333333333 114.5 705.166666667 147.5 721.5 c 128
 180.5 737.833333333 218 746 260 746 c 0
 301.333333333 746 338.166666667 738.833333333 370.5 724.5 c 128
 402.833333333 710.166666667 428.166666667 689.333333333 446.5 662 c 128
 464.833333333 634.666666667 474 601.666666667 474 563 c 0
 474 518.333333333 462 481.333333333 438 452 c 128
 414 422.666666667 382.666666667 401 344 387 c 1
 344 382 l 1
 372.666666667 375.333333333 398.666666667 363.666666667 422 347 c 128
 445.333333333 330.333333333 464 309.333333333 478 284 c 128
 492 258.666666667 499 229.333333333 499 196 c 0
 499 152.666666667 488.333333333 115.333333333 467 84 c 128
 445.666666667 52.6666666667 417.333333333 28.6666666667 382 12 c 128
 346.666666667 -4.66666666667 307 -13 263 -13 c 0
EndSplineSet
Substitution2: "NotoSansKR-Regular-'locl' Localized Forms lookup 38 subtable" three.locl
Substitution2: "NotoSansKR-Regular-'hwid' Half Widths lookup 35 subtable" three.hwid
Substitution2: "NotoSansKR-Regular-'fwid' Full Widths lookup 34 subtable" uniFF13
AlternateSubs2: "NotoSansKR-Regular-'aalt' Access All Alternates lookup 1 subtable" uniFF13 three.hwid
EndChar

StartChar: four
Encoding: 52 52 19
Width: 555
Flags: HW
LayerCount: 2
Fore
SplineSet
340 0 m 1
 340 500 l 2
 340 518 340.666666667 540 342 566 c 128
 343.333333333 592 344.333333333 614.333333333 345 633 c 1
 341 633 l 1
 331.666666667 615.666666667 322.166666667 597.833333333 312.5 579.5 c 128
 302.833333333 561.166666667 292.666666667 543 282 525 c 2
 115 275 l 1
 524 275 l 1
 524 202 l 1
 20 202 l 1
 20 262 l 1
 325 733 l 1
 426 733 l 1
 426 0 l 1
 340 0 l 1
EndSplineSet
Substitution2: "NotoSansKR-Regular-'locl' Localized Forms lookup 38 subtable" four.locl
Substitution2: "NotoSansKR-Regular-'hwid' Half Widths lookup 35 subtable" four.hwid
Substitution2: "NotoSansKR-Regular-'fwid' Full Widths lookup 34 subtable" uniFF14
AlternateSubs2: "NotoSansKR-Regular-'aalt' Access All Alternates lookup 1 subtable" uniFF14 four.hwid
EndChar

StartChar: five
Encoding: 53 53 20
Width: 555
Flags: HW
LayerCount: 2
Fore
SplineSet
262 -13 m 0
 224 -13 190.5 -8.33333333333 161.5 1 c 128
 132.5 10.3333333333 107.166666667 22.3333333333 85.5 37 c 128
 63.8333333333 51.6666666667 44.3333333333 67.3333333333 27 84 c 1
 73 144 l 1
 87 130 102.5 116.833333333 119.5 104.5 c 128
 136.5 92.1666666667 156 82.1666666667 178 74.5 c 128
 200 66.8333333333 225 63 253 63 c 0
 281.666666667 63 307.833333333 70 331.5 84 c 128
 355.166666667 98 374 118 388 144 c 128
 402 170 409 200.666666667 409 236 c 0
 409 288 395.166666667 328.833333333 367.5 358.5 c 128
 339.833333333 388.166666667 303 403 257 403 c 0
 233 403 212 399.333333333 194 392 c 128
 176 384.666666667 156.333333333 374 135 360 c 1
 86 391 l 1
 110 733 l 1
 466 733 l 1
 466 655 l 1
 190 655 l 1
 171 443 l 1
 187 452.333333333 203.833333333 459.5 221.5 464.5 c 128
 239.166666667 469.5 259 472 281 472 c 0
 321.666666667 472 358.666666667 463.833333333 392 447.5 c 128
 425.333333333 431.166666667 452 405.666666667 472 371 c 128
 492 336.333333333 502 292 502 238 c 0
 502 184.666666667 490.5 139.333333333 467.5 102 c 128
 444.5 64.6666666667 414.666666667 36.1666666667 378 16.5 c 128
 341.333333333 -3.16666666667 302.666666667 -13 262 -13 c 0
EndSplineSet
Substitution2: "NotoSansKR-Regular-'locl' Localized Forms lookup 38 subtable" five.locl
Substitution2: "NotoSansKR-Regular-'hwid' Half Widths lookup 35 subtable" five.hwid
Substitution2: "NotoSansKR-Regular-'fwid' Full Widths lookup 34 subtable" uniFF15
AlternateSubs2: "NotoSansKR-Regular-'aalt' Access All Alternates lookup 1 subtable" uniFF15 five.hwid
EndChar

StartChar: six
Encoding: 54 54 21
Width: 555
Flags: HW
LayerCount: 2
Fore
SplineSet
301 -13 m 0
 266.333333333 -13 234 -5.5 204 9.5 c 128
 174 24.5 148 47.1666666667 126 77.5 c 128
 104 107.833333333 86.8333333333 145.666666667 74.5 191 c 128
 62.1666666667 236.333333333 56 289.333333333 56 350 c 0
 56 421.333333333 63.3333333333 482.333333333 78 533 c 128
 92.6666666667 583.666666667 112.666666667 624.666666667 138 656 c 128
 163.333333333 687.333333333 192.333333333 710.166666667 225 724.5 c 128
 257.666666667 738.833333333 291.666666667 746 327 746 c 0
 365 746 398 739 426 725 c 128
 454 711 478.333333333 693 499 671 c 1
 447 615 l 1
 433 632.333333333 415.666666667 646 395 656 c 128
 374.333333333 666 353 671 331 671 c 0
 296.333333333 671 264.666666667 660.833333333 236 640.5 c 128
 207.333333333 620.166666667 184.5 586.666666667 167.5 540 c 128
 150.5 493.333333333 142 430 142 350 c 0
 142 287.333333333 148.166666667 234.333333333 160.5 191 c 128
 172.833333333 147.666666667 190.833333333 114.833333333 214.5 92.5 c 128
 238.166666667 70.1666666667 267 59 301 59 c 0
 325 59 346.166666667 66 364.5 80 c 128
 382.833333333 94 397.5 113.5 408.5 138.5 c 128
 419.5 163.5 425 192.333333333 425 225 c 0
 425 258.333333333 420.166666667 287.166666667 410.5 311.5 c 128
 400.833333333 335.833333333 386.333333333 354.5 367 367.5 c 128
 347.666666667 380.5 323 387 293 387 c 0
 269.666666667 387 244.333333333 379.5 217 364.5 c 128
 189.666666667 349.5 163.666666667 323.666666667 139 287 c 1
 136 359 l 1
 151.333333333 379 168.333333333 396.166666667 187 410.5 c 128
 205.666666667 424.833333333 225.5 435.833333333 246.5 443.5 c 128
 267.5 451.166666667 288 455 308 455 c 0
 349.333333333 455 385.166666667 446.5 415.5 429.5 c 128
 445.833333333 412.5 469.5 387 486.5 353 c 128
 503.5 319 512 276.333333333 512 225 c 0
 512 177.666666667 502.333333333 136.166666667 483 100.5 c 128
 463.666666667 64.8333333333 438.166666667 37 406.5 17 c 128
 374.833333333 -3 339.666666667 -13 301 -13 c 0
EndSplineSet
Substitution2: "NotoSansKR-Regular-'locl' Localized Forms lookup 38 subtable" six.locl
Substitution2: "NotoSansKR-Regular-'hwid' Half Widths lookup 35 subtable" six.hwid
Substitution2: "NotoSansKR-Regular-'fwid' Full Widths lookup 34 subtable" uniFF16
AlternateSubs2: "NotoSansKR-Regular-'aalt' Access All Alternates lookup 1 subtable" uniFF16 six.hwid
EndChar

StartChar: seven
Encoding: 55 55 22
Width: 555
Flags: HW
LayerCount: 2
Fore
SplineSet
198 0 m 1
 201.333333333 69.3333333333 207.166666667 133.166666667 215.5 191.5 c 128
 223.833333333 249.833333333 236 304.833333333 252 356.5 c 128
 268 408.166666667 288.5 458.333333333 313.5 507 c 128
 338.5 555.666666667 369 605 405 655 c 1
 49 655 l 1
 49 733 l 1
 508 733 l 1
 508 678 l 1
 465.333333333 622.666666667 430.5 569.666666667 403.5 519 c 128
 376.5 468.333333333 355.5 416.666666667 340.5 364 c 128
 325.5 311.333333333 314.5 255.5 307.5 196.5 c 128
 300.5 137.5 295.666666667 72 293 0 c 1
 198 0 l 1
EndSplineSet
Substitution2: "NotoSansKR-Regular-'locl' Localized Forms lookup 38 subtable" seven.locl
Substitution2: "NotoSansKR-Regular-'hwid' Half Widths lookup 35 subtable" seven.hwid
Substitution2: "NotoSansKR-Regular-'fwid' Full Widths lookup 34 subtable" uniFF17
AlternateSubs2: "NotoSansKR-Regular-'aalt' Access All Alternates lookup 1 subtable" uniFF17 seven.hwid
EndChar

StartChar: eight
Encoding: 56 56 23
Width: 555
Flags: HW
LayerCount: 2
Fore
SplineSet
280 -13 m 0
 234.666666667 -13 194.333333333 -4.66666666667 159 12 c 128
 123.666666667 28.6666666667 96 51.6666666667 76 81 c 128
 56 110.333333333 46 144 46 182 c 0
 46 214.666666667 52.5 244.166666667 65.5 270.5 c 128
 78.5 296.833333333 95.3333333333 319.5 116 338.5 c 128
 136.666666667 357.5 158 373 180 385 c 1
 180 389 l 1
 153.333333333 407.666666667 130.166666667 430.833333333 110.5 458.5 c 128
 90.8333333333 486.166666667 81 519.333333333 81 558 c 0
 81 595.333333333 89.8333333333 627.833333333 107.5 655.5 c 128
 125.166666667 683.166666667 149.166666667 704.833333333 179.5 720.5 c 128
 209.833333333 736.166666667 244 744 282 744 c 0
 324 744 360 735.666666667 390 719 c 128
 420 702.333333333 443 679.666666667 459 651 c 128
 475 622.333333333 483 589 483 551 c 0
 483 525.666666667 477.833333333 501.666666667 467.5 479 c 128
 457.166666667 456.333333333 444.666666667 436.166666667 430 418.5 c 128
 415.333333333 400.833333333 400.666666667 386 386 374 c 1
 386 369 l 1
 407.333333333 357 427.333333333 342.5 446 325.5 c 128
 464.666666667 308.5 479.833333333 287.833333333 491.5 263.5 c 128
 503.166666667 239.166666667 509 210 509 176 c 0
 509 141.333333333 499.5 109.5 480.5 80.5 c 128
 461.5 51.5 434.833333333 28.6666666667 400.5 12 c 128
 366.166666667 -4.66666666667 326 -13 280 -13 c 0
330 398 m 1
 354.666666667 420 373.333333333 443.5 386 468.5 c 128
 398.666666667 493.5 405 519.333333333 405 546 c 0
 405 570.666666667 400.166666667 592.666666667 390.5 612 c 128
 380.833333333 631.333333333 366.666666667 646.833333333 348 658.5 c 128
 329.333333333 670.166666667 307 676 281 676 c 0
 247 676 219 665.333333333 197 644 c 128
 175 622.666666667 164 594 164 558 c 0
 164 529.333333333 171.833333333 505.166666667 187.5 485.5 c 128
 203.166666667 465.833333333 223.666666667 449.166666667 249 435.5 c 128
 274.333333333 421.833333333 301.333333333 409.333333333 330 398 c 1
281 55 m 256
 309.666666667 55 334.5 60.3333333333 355.5 71 c 128
 376.5 81.6666666667 392.833333333 96.3333333333 404.5 115 c 128
 416.166666667 133.666666667 422 155 422 179 c 0
 422 203.666666667 416.666666667 224.833333333 406 242.5 c 128
 395.333333333 260.166666667 381.166666667 275.666666667 363.5 289 c 128
 345.833333333 302.333333333 325.333333333 314.333333333 302 325 c 128
 278.666666667 335.666666667 254 346 228 356 c 1
 198.666666667 337.333333333 174.5 313.833333333 155.5 285.5 c 128
 136.5 257.166666667 127 225.333333333 127 190 c 0
 127 164.666666667 133.666666667 141.666666667 147 121 c 128
 160.333333333 100.333333333 178.833333333 84.1666666667 202.5 72.5 c 128
 226.166666667 60.8333333333 252.333333333 55 281 55 c 256
EndSplineSet
Substitution2: "NotoSansKR-Regular-'locl' Localized Forms lookup 38 subtable" eight.locl
Substitution2: "NotoSansKR-Regular-'hwid' Half Widths lookup 35 subtable" eight.hwid
Substitution2: "NotoSansKR-Regular-'fwid' Full Widths lookup 34 subtable" uniFF18
AlternateSubs2: "NotoSansKR-Regular-'aalt' Access All Alternates lookup 1 subtable" uniFF18 eight.hwid
EndChar

StartChar: nine
Encoding: 57 57 24
Width: 555
Flags: HW
LayerCount: 2
Fore
SplineSet
235 -13 m 0
 195 -13 160.5 -5.83333333333 131.5 8.5 c 128
 102.5 22.8333333333 78 40.6666666667 58 62 c 1
 108 119 l 1
 124 101.666666667 142.833333333 88 164.5 78 c 128
 186.166666667 68 208.666666667 63 232 63 c 0
 256.666666667 63 280 68.6666666667 302 80 c 128
 324 91.3333333333 343.5 110.166666667 360.5 136.5 c 128
 377.5 162.833333333 390.833333333 197.333333333 400.5 240 c 128
 410.166666667 282.666666667 415 335.333333333 415 398 c 0
 415 458 408.833333333 508.666666667 396.5 550 c 128
 384.166666667 591.333333333 366 622.5 342 643.5 c 128
 318 664.5 289 675 255 675 c 0
 231.666666667 675 210.666666667 668 192 654 c 128
 173.333333333 640 158.333333333 620.666666667 147 596 c 128
 135.666666667 571.333333333 130 542 130 508 c 0
 130 475.333333333 134.833333333 446.833333333 144.5 422.5 c 128
 154.166666667 398.166666667 168.833333333 379.333333333 188.5 366 c 128
 208.166666667 352.666666667 232.333333333 346 261 346 c 0
 285.666666667 346 311.5 353.833333333 338.5 369.5 c 128
 365.5 385.166666667 391.333333333 411 416 447 c 1
 420 374 l 1
 405.333333333 355.333333333 388.5 338.666666667 369.5 324 c 128
 350.5 309.333333333 330.5 298 309.5 290 c 128
 288.5 282 267.333333333 278 246 278 c 0
 205.333333333 278 169.833333333 286.666666667 139.5 304 c 128
 109.166666667 321.333333333 85.6666666667 347.166666667 69 381.5 c 128
 52.3333333333 415.833333333 44 458 44 508 c 0
 44 556 53.6666666667 597.833333333 73 633.5 c 128
 92.3333333333 669.166666667 117.833333333 696.833333333 149.5 716.5 c 128
 181.166666667 736.166666667 216 746 254 746 c 0
 289.333333333 746 322 738.833333333 352 724.5 c 128
 382 710.166666667 408 688.5 430 659.5 c 128
 452 630.5 469.333333333 594.333333333 482 551 c 128
 494.666666667 507.666666667 501 456.666666667 501 398 c 0
 501 324 493.666666667 260.833333333 479 208.5 c 128
 464.333333333 156.166666667 444.333333333 113.666666667 419 81 c 128
 393.666666667 48.3333333333 365.166666667 24.5 333.5 9.5 c 128
 301.833333333 -5.5 269 -13 235 -13 c 0
EndSplineSet
Substitution2: "NotoSansKR-Regular-'locl' Localized Forms lookup 38 subtable" nine.locl
Substitution2: "NotoSansKR-Regular-'hwid' Half Widths lookup 35 subtable" nine.hwid
Substitution2: "NotoSansKR-Regular-'fwid' Full Widths lookup 34 subtable" uniFF19
AlternateSubs2: "NotoSansKR-Regular-'aalt' Access All Alternates lookup 1 subtable" uniFF19 nine.hwid
EndChar

StartChar: colon
Encoding: 58 58 25
Width: 278
Flags: HW
LayerCount: 2
Fore
SplineSet
139 390 m 256
 121 390 105.5 396.5 92.5 409.5 c 128
 79.5 422.5 73 439.333333333 73 460 c 256
 73 480.666666667 79.5 497.5 92.5 510.5 c 128
 105.5 523.5 121 530 139 530 c 256
 157 530 172.5 523.5 185.5 510.5 c 128
 198.5 497.5 205 480.666666667 205 460 c 256
 205 439.333333333 198.5 422.5 185.5 409.5 c 128
 172.5 396.5 157 390 139 390 c 256
139 -13 m 256
 121 -13 105.5 -6.5 92.5 6.5 c 128
 79.5 19.5 73 36 73 56 c 0
 73 77.3333333333 79.5 94.3333333333 92.5 107 c 128
 105.5 119.666666667 121 126 139 126 c 256
 157 126 172.5 119.666666667 185.5 107 c 128
 198.5 94.3333333333 205 77.3333333333 205 56 c 0
 205 36 198.5 19.5 185.5 6.5 c 128
 172.5 -6.5 157 -13 139 -13 c 256
EndSplineSet
Substitution2: "NotoSansKR-Regular-'locl' Localized Forms lookup 39 subtable" colon.locl
Substitution2: "NotoSansKR-Regular-'hwid' Half Widths lookup 35 subtable" colon.hwid
Substitution2: "NotoSansKR-Regular-'fwid' Full Widths lookup 34 subtable" uniFF1A
AlternateSubs2: "NotoSansKR-Regular-'aalt' Access All Alternates lookup 1 subtable" uniFF1A colon.hwid
EndChar

StartChar: semicolon
Encoding: 59 59 26
Width: 278
Flags: HW
LayerCount: 2
Fore
SplineSet
139 390 m 256
 121 390 105.5 396.5 92.5 409.5 c 128
 79.5 422.5 73 439.333333333 73 460 c 256
 73 480.666666667 79.5 497.5 92.5 510.5 c 128
 105.5 523.5 121 530 139 530 c 256
 157 530 172.5 523.5 185.5 510.5 c 128
 198.5 497.5 205 480.666666667 205 460 c 256
 205 439.333333333 198.5 422.5 185.5 409.5 c 128
 172.5 396.5 157 390 139 390 c 256
75 -190 m 1
 53 -136 l 1
 84.3333333333 -122 109 -103 127 -79 c 128
 145 -55 153.666666667 -27.6666666667 153 3 c 1
 143 85 l 1
 188 18 l 1
 181.333333333 10.6666666667 174.166666667 5.5 166.5 2.5 c 128
 158.833333333 -0.5 150.666666667 -2 142 -2 c 0
 124 -2 108.333333333 3.66666666667 95 15 c 128
 81.6666666667 26.3333333333 75 42 75 62 c 256
 75 82 81.8333333333 97.6666666667 95.5 109 c 128
 109.166666667 120.333333333 125.333333333 126 144 126 c 0
 168 126 186.833333333 116.5 200.5 97.5 c 128
 214.166666667 78.5 221 52.3333333333 221 19 c 0
 221 -29 207.833333333 -71 181.5 -107 c 128
 155.166666667 -143 119.666666667 -170.666666667 75 -190 c 1
EndSplineSet
Substitution2: "NotoSansKR-Regular-'locl' Localized Forms lookup 39 subtable" semicolon.locl
Substitution2: "NotoSansKR-Regular-'hwid' Half Widths lookup 35 subtable" semicolon.hwid
Substitution2: "NotoSansKR-Regular-'fwid' Full Widths lookup 34 subtable" uniFF1B
AlternateSubs2: "NotoSansKR-Regular-'aalt' Access All Alternates lookup 1 subtable" uniFF1B semicolon.hwid
EndChar

StartChar: less
Encoding: 60 60 27
Width: 555
Flags: HW
LayerCount: 2
Fore
SplineSet
518 146 m 1
 38 335 l 1
 38 407 l 1
 518 596 l 1
 518 517 l 1
 281 429 l 1
 131 373 l 1
 131 369 l 1
 281 313 l 1
 518 226 l 1
 518 146 l 1
EndSplineSet
Substitution2: "NotoSansKR-Regular-'hwid' Half Widths lookup 35 subtable" less.hwid
Substitution2: "NotoSansKR-Regular-'fwid' Full Widths lookup 34 subtable" uniFF1C
AlternateSubs2: "NotoSansKR-Regular-'aalt' Access All Alternates lookup 1 subtable" uniFF1C less.hwid
EndChar

StartChar: equal
Encoding: 61 61 28
Width: 555
Flags: HW
LayerCount: 2
Fore
SplineSet
38 455 m 1
 38 523 l 1
 518 523 l 1
 518 455 l 1
 38 455 l 1
38 215 m 1
 38 283 l 1
 518 283 l 1
 518 215 l 1
 38 215 l 1
EndSplineSet
Substitution2: "NotoSansKR-Regular-'hwid' Half Widths lookup 35 subtable" equal.hwid
Substitution2: "NotoSansKR-Regular-'fwid' Full Widths lookup 34 subtable" uniFF1D
AlternateSubs2: "NotoSansKR-Regular-'aalt' Access All Alternates lookup 1 subtable" uniFF1D equal.hwid
EndChar

StartChar: greater
Encoding: 62 62 29
Width: 555
Flags: HW
LayerCount: 2
Fore
SplineSet
38 146 m 1
 38 226 l 1
 274 313 l 1
 424 369 l 1
 424 373 l 1
 274 429 l 1
 38 517 l 1
 38 596 l 1
 518 407 l 1
 518 335 l 1
 38 146 l 1
EndSplineSet
Substitution2: "NotoSansKR-Regular-'hwid' Half Widths lookup 35 subtable" greater.hwid
Substitution2: "NotoSansKR-Regular-'fwid' Full Widths lookup 34 subtable" uniFF1E
AlternateSubs2: "NotoSansKR-Regular-'aalt' Access All Alternates lookup 1 subtable" uniFF1E greater.hwid
EndChar

StartChar: question
Encoding: 63 63 30
Width: 474
Flags: HW
LayerCount: 2
Fore
SplineSet
178 221 m 1
 173.333333333 255.666666667 175.5 286.666666667 184.5 314 c 128
 193.5 341.333333333 206 366 222 388 c 128
 238 410 254.5 431 271.5 451 c 128
 288.5 471 302.833333333 491.166666667 314.5 511.5 c 128
 326.166666667 531.833333333 332 554 332 578 c 0
 332 598 328 616.166666667 320 632.5 c 128
 312 648.833333333 300 661.833333333 284 671.5 c 128
 268 681.166666667 248 686 224 686 c 0
 199.333333333 686 176 680.5 154 669.5 c 128
 132 658.5 112.333333333 642.666666667 95 622 c 1
 43 670 l 1
 66.3333333333 696.666666667 94 718.666666667 126 736 c 128
 158 753.333333333 194 762 234 762 c 0
 272 762 305 754.833333333 333 740.5 c 128
 361 726.166666667 382.666666667 705.666666667 398 679 c 128
 413.333333333 652.333333333 421 620.666666667 421 584 c 0
 421 554 415 527.333333333 403 504 c 128
 391 480.666666667 376.333333333 458.666666667 359 438 c 128
 341.666666667 417.333333333 324.666666667 396.166666667 308 374.5 c 128
 291.333333333 352.833333333 278 329.833333333 268 305.5 c 128
 258 281.166666667 255 253 259 221 c 1
 178 221 l 1
221 -13 m 0
 203 -13 187.666666667 -6.5 175 6.5 c 128
 162.333333333 19.5 156 36 156 56 c 0
 156 77.3333333333 162.333333333 94.3333333333 175 107 c 128
 187.666666667 119.666666667 203 126 221 126 c 0
 239.666666667 126 255.5 119.666666667 268.5 107 c 128
 281.5 94.3333333333 288 77.3333333333 288 56 c 0
 288 36 281.5 19.5 268.5 6.5 c 128
 255.5 -6.5 239.666666667 -13 221 -13 c 0
EndSplineSet
Substitution2: "NotoSansKR-Regular-'locl' Localized Forms lookup 39 subtable" question.locl
Substitution2: "NotoSansKR-Regular-'hwid' Half Widths lookup 35 subtable" question.hwid
Substitution2: "NotoSansKR-Regular-'fwid' Full Widths lookup 34 subtable" uniFF1F
AlternateSubs2: "NotoSansKR-Regular-'aalt' Access All Alternates lookup 1 subtable" uniFF1F question.hwid
EndChar

StartChar: at
Encoding: 64 64 31
Width: 946
Flags: HW
LayerCount: 2
Fore
SplineSet
449 -173 m 0
 395 -173 344.166666667 -164.5 296.5 -147.5 c 128
 248.833333333 -130.5 207 -105 171 -71 c 128
 135 -37 106.833333333 4.83333333333 86.5 54.5 c 128
 66.1666666667 104.166666667 56 161.666666667 56 227 c 0
 56 302.333333333 68.5 370.333333333 93.5 431 c 128
 118.5 491.666666667 152.666666667 543.666666667 196 587 c 128
 239.333333333 630.333333333 289.166666667 663.666666667 345.5 687 c 128
 401.833333333 710.333333333 461 722 523 722 c 0
 598.333333333 722 663.333333333 706.5 718 675.5 c 128
 772.666666667 644.5 814.833333333 601.333333333 844.5 546 c 128
 874.166666667 490.666666667 889 426 889 352 c 0
 889 303.333333333 882.333333333 260.5 869 223.5 c 128
 855.666666667 186.5 838 155.5 816 130.5 c 128
 794 105.5 769.833333333 86.6666666667 743.5 74 c 128
 717.166666667 61.3333333333 691.333333333 55 666 55 c 0
 636 55 610.166666667 62 588.5 76 c 128
 566.833333333 90 554.333333333 111.333333333 551 140 c 1
 548 140 l 1
 530 118.666666667 509 100.5 485 85.5 c 128
 461 70.5 436.666666667 63 412 63 c 0
 374.666666667 63 342.833333333 76.8333333333 316.5 104.5 c 128
 290.166666667 132.166666667 277 171.333333333 277 222 c 0
 277 251.333333333 282.166666667 281.166666667 292.5 311.5 c 128
 302.833333333 341.833333333 317.333333333 370 336 396 c 128
 354.666666667 422 377.333333333 442.666666667 404 458 c 128
 430.666666667 473.333333333 460.333333333 481 493 481 c 0
 511.666666667 481 528.666666667 476.5 544 467.5 c 128
 559.333333333 458.5 572 444.666666667 582 426 c 1
 584 426 l 1
 597 472 l 1
 657 472 l 1
 613 249 l 1
 591.666666667 161 612 117 674 117 c 0
 698 117 721.5 126.166666667 744.5 144.5 c 128
 767.5 162.833333333 786.666666667 189.333333333 802 224 c 128
 817.333333333 258.666666667 825 300 825 348 c 0
 825 393.333333333 818.333333333 435 805 473 c 128
 791.666666667 511 772 544 746 572 c 128
 720 600 687.666666667 621.833333333 649 637.5 c 128
 610.333333333 653.166666667 565.666666667 661 515 661 c 0
 465 661 416.666666667 650.833333333 370 630.5 c 128
 323.333333333 610.166666667 281.5 581.166666667 244.5 543.5 c 128
 207.5 505.833333333 178 460.5 156 407.5 c 128
 134 354.5 123 295.333333333 123 230 c 0
 123 175.333333333 131.333333333 126.833333333 148 84.5 c 128
 164.666666667 42.1666666667 188 6.5 218 -22.5 c 128
 248 -51.5 283.333333333 -73.6666666667 324 -89 c 128
 364.666666667 -104.333333333 408.666666667 -112 456 -112 c 0
 490 -112 522.5 -107.166666667 553.5 -97.5 c 128
 584.5 -87.8333333333 612.333333333 -76 637 -62 c 1
 662 -116 l 1
 630 -135.333333333 596.333333333 -149.666666667 561 -159 c 128
 525.666666667 -168.333333333 488.333333333 -173 449 -173 c 0
430 126 m 0
 445.333333333 126 461.666666667 131.166666667 479 141.5 c 128
 496.333333333 151.833333333 514.666666667 169 534 193 c 1
 565 370 l 1
 555 387.333333333 544.333333333 399.5 533 406.5 c 128
 521.666666667 413.5 508.333333333 417 493 417 c 0
 471.666666667 417 452 411.166666667 434 399.5 c 128
 416 387.833333333 400.833333333 372.5 388.5 353.5 c 128
 376.166666667 334.5 366.833333333 313.833333333 360.5 291.5 c 128
 354.166666667 269.166666667 351 247.666666667 351 227 c 0
 351 191 358.5 165.166666667 373.5 149.5 c 128
 388.5 133.833333333 407.333333333 126 430 126 c 0
EndSplineSet
Substitution2: "NotoSansKR-Regular-'hwid' Half Widths lookup 35 subtable" at.hwid
Substitution2: "NotoSansKR-Regular-'fwid' Full Widths lookup 34 subtable" uniFF20
AlternateSubs2: "NotoSansKR-Regular-'aalt' Access All Alternates lookup 1 subtable" uniFF20 at.hwid
EndChar

StartChar: A
Encoding: 65 65 32
Width: 608
Flags: HW
LayerCount: 2
Fore
SplineSet
4 0 m 1
 252 733 l 1
 355 733 l 1
 604 0 l 1
 506 0 l 1
 378 410 l 2
 364.666666667 452 352 493.166666667 340 533.5 c 128
 328 573.833333333 316 615.333333333 304 658 c 1
 300 658 l 1
 288.666666667 615.333333333 276.833333333 573.833333333 264.5 533.5 c 128
 252.166666667 493.166666667 239.666666667 452 227 410 c 2
 97 0 l 1
 4 0 l 1
133 224 m 1
 133 297 l 1
 471 297 l 1
 471 224 l 1
 133 224 l 1
EndSplineSet
Substitution2: "NotoSansKR-Regular-'hwid' Half Widths lookup 35 subtable" A.hwid
Substitution2: "NotoSansKR-Regular-'fwid' Full Widths lookup 34 subtable" uniFF21
AlternateSubs2: "NotoSansKR-Regular-'aalt' Access All Alternates lookup 1 subtable" uniFF21 A.hwid
EndChar

StartChar: B
Encoding: 66 66 33
Width: 657
Flags: HW
LayerCount: 2
Fore
SplineSet
101 0 m 1
 101 733 l 1
 318 733 l 2
 368 733 411.833333333 727 449.5 715 c 128
 487.166666667 703 516.666666667 684 538 658 c 128
 559.333333333 632 570 597.333333333 570 554 c 0
 570 530 565.833333333 507.166666667 557.5 485.5 c 128
 549.166666667 463.833333333 537 445.166666667 521 429.5 c 128
 505 413.833333333 485.666666667 402.333333333 463 395 c 1
 463 390 l 1
 506.333333333 382 542 363.333333333 570 334 c 128
 598 304.666666667 612 265 612 215 c 0
 612 167 600.166666667 127.166666667 576.5 95.5 c 128
 552.833333333 63.8333333333 520.166666667 40 478.5 24 c 128
 436.833333333 8 388.666666667 0 334 0 c 2
 101 0 l 1
193 422 m 1
 302 422 l 2
 365.333333333 422 410.666666667 432.666666667 438 454 c 128
 465.333333333 475.333333333 479 504.666666667 479 542 c 0
 479 585.333333333 464.5 615.833333333 435.5 633.5 c 128
 406.5 651.166666667 363.333333333 660 306 660 c 2
 193 660 l 1
 193 422 l 1
193 74 m 1
 321 74 l 2
 383.666666667 74 432.666666667 85.6666666667 468 109 c 128
 503.333333333 132.333333333 521 168.666666667 521 218 c 0
 521 264 503.666666667 297.5 469 318.5 c 128
 434.333333333 339.5 385 350 321 350 c 2
 193 350 l 1
 193 74 l 1
EndSplineSet
Substitution2: "NotoSansKR-Regular-'hwid' Half Widths lookup 35 subtable" B.hwid
Substitution2: "NotoSansKR-Regular-'fwid' Full Widths lookup 34 subtable" uniFF22
AlternateSubs2: "NotoSansKR-Regular-'aalt' Access All Alternates lookup 1 subtable" uniFF22 B.hwid
EndChar

StartChar: C
Encoding: 67 67 34
Width: 638
Flags: HW
LayerCount: 2
Fore
SplineSet
377 -13 m 0
 331.666666667 -13 289.5 -4.5 250.5 12.5 c 128
 211.5 29.5 177.666666667 54.3333333333 149 87 c 128
 120.333333333 119.666666667 98 159.5 82 206.5 c 128
 66 253.5 58 306.666666667 58 366 c 256
 58 425.333333333 66.1666666667 478.5 82.5 525.5 c 128
 98.8333333333 572.5 121.666666667 612.333333333 151 645 c 128
 180.333333333 677.666666667 214.666666667 702.666666667 254 720 c 128
 293.333333333 737.333333333 336.333333333 746 383 746 c 0
 427.666666667 746 467 736.833333333 501 718.5 c 128
 535 700.166666667 562.666666667 679.333333333 584 656 c 1
 534 596 l 1
 514.666666667 616.666666667 492.666666667 633.333333333 468 646 c 128
 443.333333333 658.666666667 415.333333333 665 384 665 c 0
 338 665 297.666666667 653 263 629 c 128
 228.333333333 605 201.333333333 570.833333333 182 526.5 c 128
 162.666666667 482.166666667 153 429.666666667 153 369 c 0
 153 307 162.333333333 253.5 181 208.5 c 128
 199.666666667 163.5 226 128.833333333 260 104.5 c 128
 294 80.1666666667 334.333333333 68 381 68 c 0
 415.666666667 68 446.833333333 75.3333333333 474.5 90 c 128
 502.166666667 104.666666667 527.666666667 125 551 151 c 1
 602 92 l 1
 573.333333333 58.6666666667 540.666666667 32.8333333333 504 14.5 c 128
 467.333333333 -3.83333333333 425 -13 377 -13 c 0
EndSplineSet
Substitution2: "NotoSansKR-Regular-'hwid' Half Widths lookup 35 subtable" C.hwid
Substitution2: "NotoSansKR-Regular-'fwid' Full Widths lookup 34 subtable" uniFF23
AlternateSubs2: "NotoSansKR-Regular-'aalt' Access All Alternates lookup 1 subtable" uniFF23 C.hwid
EndChar

StartChar: D
Encoding: 68 68 35
Width: 688
Flags: HW
LayerCount: 2
Fore
SplineSet
101 0 m 1
 101 733 l 1
 284 733 l 2
 359.333333333 733 422.666666667 718.833333333 474 690.5 c 128
 525.333333333 662.166666667 564 621 590 567 c 128
 616 513 629 447 629 369 c 0
 629 291.666666667 616 225.333333333 590 170 c 128
 564 114.666666667 525.666666667 72.5 475 43.5 c 128
 424.333333333 14.5 362 0 288 0 c 2
 101 0 l 1
193 76 m 1
 276 76 l 2
 333.333333333 76 381.166666667 87.5 419.5 110.5 c 128
 457.833333333 133.5 486.5 167 505.5 211 c 128
 524.5 255 534 307.666666667 534 369 c 0
 534 431.666666667 524.5 484.333333333 505.5 527 c 128
 486.5 569.666666667 457.833333333 602.166666667 419.5 624.5 c 128
 381.166666667 646.833333333 333.333333333 658 276 658 c 2
 193 658 l 1
 193 76 l 1
EndSplineSet
Substitution2: "NotoSansKR-Regular-'hwid' Half Widths lookup 35 subtable" D.hwid
Substitution2: "NotoSansKR-Regular-'fwid' Full Widths lookup 34 subtable" uniFF24
AlternateSubs2: "NotoSansKR-Regular-'aalt' Access All Alternates lookup 1 subtable" uniFF24 D.hwid
EndChar

StartChar: E
Encoding: 69 69 36
Width: 589
Flags: HW
LayerCount: 2
Fore
SplineSet
101 0 m 1
 101 733 l 1
 523 733 l 1
 523 655 l 1
 193 655 l 1
 193 425 l 1
 471 425 l 1
 471 346 l 1
 193 346 l 1
 193 79 l 1
 534 79 l 1
 534 0 l 1
 101 0 l 1
EndSplineSet
Substitution2: "NotoSansKR-Regular-'hwid' Half Widths lookup 35 subtable" E.hwid
Substitution2: "NotoSansKR-Regular-'fwid' Full Widths lookup 34 subtable" uniFF25
AlternateSubs2: "NotoSansKR-Regular-'aalt' Access All Alternates lookup 1 subtable" uniFF25 E.hwid
EndChar

StartChar: F
Encoding: 70 70 37
Width: 552
Flags: HW
LayerCount: 2
Fore
SplineSet
101 0 m 1
 101 733 l 1
 523 733 l 1
 523 655 l 1
 193 655 l 1
 193 407 l 1
 473 407 l 1
 473 329 l 1
 193 329 l 1
 193 0 l 1
 101 0 l 1
EndSplineSet
Substitution2: "NotoSansKR-Regular-'hwid' Half Widths lookup 35 subtable" F.hwid
Substitution2: "NotoSansKR-Regular-'fwid' Full Widths lookup 34 subtable" uniFF26
AlternateSubs2: "NotoSansKR-Regular-'aalt' Access All Alternates lookup 1 subtable" uniFF26 F.hwid
EndChar

StartChar: G
Encoding: 71 71 38
Width: 689
Flags: HW
LayerCount: 2
Fore
SplineSet
389 -13 m 0
 324.333333333 -13 267.166666667 2 217.5 32 c 128
 167.833333333 62 128.833333333 105.333333333 100.5 162 c 128
 72.1666666667 218.666666667 58 286.666666667 58 366 c 0
 58 425.333333333 66.3333333333 478.5 83 525.5 c 128
 99.6666666667 572.5 123.166666667 612.333333333 153.5 645 c 128
 183.833333333 677.666666667 219.333333333 702.666666667 260 720 c 128
 300.666666667 737.333333333 345.333333333 746 394 746 c 0
 445.333333333 746 488 736.5 522 717.5 c 128
 556 698.5 583.666666667 678 605 656 c 1
 555 596 l 1
 536.333333333 615.333333333 514.5 631.666666667 489.5 645 c 128
 464.5 658.333333333 433.666666667 665 397 665 c 0
 347.666666667 665 304.666666667 653 268 629 c 128
 231.333333333 605 203 570.833333333 183 526.5 c 128
 163 482.166666667 153 429.666666667 153 369 c 0
 153 307 162.5 253.5 181.5 208.5 c 128
 200.5 163.5 228.333333333 128.833333333 265 104.5 c 128
 301.666666667 80.1666666667 346 68 398 68 c 0
 424 68 448.833333333 71.8333333333 472.5 79.5 c 128
 496.166666667 87.1666666667 515.333333333 97.6666666667 530 111 c 1
 530 303 l 1
 374 303 l 1
 374 380 l 1
 615 380 l 1
 615 72 l 1
 591 47.3333333333 559.5 27 520.5 11 c 128
 481.5 -5 437.666666667 -13 389 -13 c 0
EndSplineSet
Substitution2: "NotoSansKR-Regular-'hwid' Half Widths lookup 35 subtable" G.hwid
Substitution2: "NotoSansKR-Regular-'fwid' Full Widths lookup 34 subtable" uniFF27
AlternateSubs2: "NotoSansKR-Regular-'aalt' Access All Alternates lookup 1 subtable" uniFF27 G.hwid
EndChar

StartChar: H
Encoding: 72 72 39
Width: 728
Flags: HW
LayerCount: 2
Fore
SplineSet
101 0 m 1
 101 733 l 1
 193 733 l 1
 193 426 l 1
 535 426 l 1
 535 733 l 1
 628 733 l 1
 628 0 l 1
 535 0 l 1
 535 346 l 1
 193 346 l 1
 193 0 l 1
 101 0 l 1
EndSplineSet
Substitution2: "NotoSansKR-Regular-'hwid' Half Widths lookup 35 subtable" H.hwid
Substitution2: "NotoSansKR-Regular-'fwid' Full Widths lookup 34 subtable" uniFF28
AlternateSubs2: "NotoSansKR-Regular-'aalt' Access All Alternates lookup 1 subtable" uniFF28 H.hwid
EndChar

StartChar: I
Encoding: 73 73 40
Width: 293
Flags: HW
LayerCount: 2
Fore
SplineSet
101 0 m 1
 101 733 l 1
 193 733 l 1
 193 0 l 1
 101 0 l 1
EndSplineSet
Substitution2: "NotoSansKR-Regular-'hwid' Half Widths lookup 35 subtable" I.hwid
Substitution2: "NotoSansKR-Regular-'fwid' Full Widths lookup 34 subtable" uniFF29
AlternateSubs2: "NotoSansKR-Regular-'aalt' Access All Alternates lookup 1 subtable" uniFF29 I.hwid
EndChar

StartChar: J
Encoding: 74 74 41
Width: 535
Flags: HW
LayerCount: 2
Fore
SplineSet
237 -13 m 0
 190.333333333 -13 150.5 -3.16666666667 117.5 16.5 c 128
 84.5 36.1666666667 57 65 35 103 c 1
 101 151 l 1
 117.666666667 121 136.5 99.6666666667 157.5 87 c 128
 178.5 74.3333333333 202 68 228 68 c 0
 268 68 297.666666667 80.1666666667 317 104.5 c 128
 336.333333333 128.833333333 346 168.666666667 346 224 c 2
 346 733 l 1
 439 733 l 1
 439 215 l 2
 439 173 432 134.666666667 418 100 c 128
 404 65.3333333333 382.166666667 37.8333333333 352.5 17.5 c 128
 322.833333333 -2.83333333333 284.333333333 -13 237 -13 c 0
EndSplineSet
Substitution2: "NotoSansKR-Regular-'hwid' Half Widths lookup 35 subtable" J.hwid
Substitution2: "NotoSansKR-Regular-'fwid' Full Widths lookup 34 subtable" uniFF2A
AlternateSubs2: "NotoSansKR-Regular-'aalt' Access All Alternates lookup 1 subtable" uniFF2A J.hwid
EndChar

StartChar: K
Encoding: 75 75 42
Width: 646
Flags: HW
LayerCount: 2
Fore
SplineSet
101 0 m 1
 101 733 l 1
 193 733 l 1
 193 365 l 1
 195 365 l 1
 502 733 l 1
 607 733 l 1
 377 455 l 1
 642 0 l 1
 539 0 l 1
 319 382 l 1
 193 232 l 1
 193 0 l 1
 101 0 l 1
EndSplineSet
Substitution2: "NotoSansKR-Regular-'hwid' Half Widths lookup 35 subtable" K.hwid
Substitution2: "NotoSansKR-Regular-'fwid' Full Widths lookup 34 subtable" uniFF2B
AlternateSubs2: "NotoSansKR-Regular-'aalt' Access All Alternates lookup 1 subtable" uniFF2B K.hwid
EndChar

StartChar: L
Encoding: 76 76 43
Width: 543
Flags: HW
LayerCount: 2
Fore
SplineSet
101 0 m 1
 101 733 l 1
 193 733 l 1
 193 79 l 1
 514 79 l 1
 514 0 l 1
 101 0 l 1
EndSplineSet
Substitution2: "NotoSansKR-Regular-'hwid' Half Widths lookup 35 subtable" L.hwid
Substitution2: "NotoSansKR-Regular-'fwid' Full Widths lookup 34 subtable" uniFF2C
AlternateSubs2: "NotoSansKR-Regular-'aalt' Access All Alternates lookup 1 subtable" uniFF2C L.hwid
EndChar

StartChar: M
Encoding: 77 77 44
Width: 812
Flags: HW
LayerCount: 2
Fore
SplineSet
101 0 m 1
 101 733 l 1
 212 733 l 1
 352 341 l 2
 361.333333333 316.333333333 370.333333333 291 379 265 c 128
 387.666666667 239 396.333333333 213.333333333 405 188 c 1
 409 188 l 1
 418.333333333 213.333333333 427.166666667 239 435.5 265 c 128
 443.833333333 291 452 316.333333333 460 341 c 2
 600 733 l 1
 711 733 l 1
 711 0 l 1
 625 0 l 1
 625 406 l 2
 625 427.333333333 625.666666667 450.5 627 475.5 c 128
 628.333333333 500.5 630 525.833333333 632 551.5 c 128
 634 577.166666667 635.666666667 600.666666667 637 622 c 1
 633 622 l 1
 574 455 l 1
 436 74 l 1
 374 74 l 1
 235 455 l 1
 176 622 l 1
 172 622 l 1
 174.666666667 600.666666667 176.833333333 577.166666667 178.5 551.5 c 128
 180.166666667 525.833333333 181.5 500.5 182.5 475.5 c 128
 183.5 450.5 184 427.333333333 184 406 c 2
 184 0 l 1
 101 0 l 1
EndSplineSet
Substitution2: "NotoSansKR-Regular-'hwid' Half Widths lookup 35 subtable" M.hwid
Substitution2: "NotoSansKR-Regular-'fwid' Full Widths lookup 34 subtable" uniFF2D
AlternateSubs2: "NotoSansKR-Regular-'aalt' Access All Alternates lookup 1 subtable" uniFF2D M.hwid
EndChar

StartChar: N
Encoding: 78 78 45
Width: 723
Flags: HW
LayerCount: 2
Fore
SplineSet
101 0 m 1
 101 733 l 1
 195 733 l 1
 463 271 l 1
 542 120 l 1
 547 120 l 1
 543.666666667 156.666666667 540.666666667 195 538 235 c 128
 535.333333333 275 534 314 534 352 c 2
 534 733 l 1
 622 733 l 1
 622 0 l 1
 527 0 l 1
 260 463 l 1
 181 613 l 1
 177 613 l 1
 179 576.333333333 181.333333333 538.833333333 184 500.5 c 128
 186.666666667 462.166666667 188 423.666666667 188 385 c 2
 188 0 l 1
 101 0 l 1
EndSplineSet
Substitution2: "NotoSansKR-Regular-'hwid' Half Widths lookup 35 subtable" N.hwid
Substitution2: "NotoSansKR-Regular-'fwid' Full Widths lookup 34 subtable" uniFF2E
AlternateSubs2: "NotoSansKR-Regular-'aalt' Access All Alternates lookup 1 subtable" uniFF2E N.hwid
EndChar

StartChar: O
Encoding: 79 79 46
Width: 742
Flags: HW
LayerCount: 2
Fore
SplineSet
371 -13 m 256
 309.666666667 -13 255.5 2.5 208.5 33.5 c 128
 161.5 64.5 124.666666667 108.666666667 98 166 c 128
 71.3333333333 223.333333333 58 291 58 369 c 0
 58 447.666666667 71.3333333333 515.166666667 98 571.5 c 128
 124.666666667 627.833333333 161.5 671 208.5 701 c 128
 255.5 731 309.666666667 746 371 746 c 256
 432.333333333 746 486.5 730.833333333 533.5 700.5 c 128
 580.5 670.166666667 617.333333333 627 644 571 c 128
 670.666666667 515 684 447.666666667 684 369 c 0
 684 291 670.666666667 223.333333333 644 166 c 128
 617.333333333 108.666666667 580.5 64.5 533.5 33.5 c 128
 486.5 2.5 432.333333333 -13 371 -13 c 256
371 68 m 0
 415 68 453.333333333 80.3333333333 486 105 c 128
 518.666666667 129.666666667 544 164.666666667 562 210 c 128
 580 255.333333333 589 308.333333333 589 369 c 0
 589 430.333333333 580 483.166666667 562 527.5 c 128
 544 571.833333333 518.666666667 605.833333333 486 629.5 c 128
 453.333333333 653.166666667 415 665 371 665 c 0
 327.666666667 665 289.5 653.166666667 256.5 629.5 c 128
 223.5 605.833333333 198 571.833333333 180 527.5 c 128
 162 483.166666667 153 430.333333333 153 369 c 0
 153 308.333333333 162 255.333333333 180 210 c 128
 198 164.666666667 223.5 129.666666667 256.5 105 c 128
 289.5 80.3333333333 327.666666667 68 371 68 c 0
EndSplineSet
Substitution2: "NotoSansKR-Regular-'hwid' Half Widths lookup 35 subtable" O.hwid
Substitution2: "NotoSansKR-Regular-'fwid' Full Widths lookup 34 subtable" uniFF2F
AlternateSubs2: "NotoSansKR-Regular-'aalt' Access All Alternates lookup 1 subtable" uniFF2F O.hwid
EndChar

StartChar: P
Encoding: 80 80 47
Width: 633
Flags: HW
LayerCount: 2
Fore
SplineSet
101 0 m 1
 101 733 l 1
 310 733 l 2
 364.666666667 733 412.666666667 726.166666667 454 712.5 c 128
 495.333333333 698.833333333 527.333333333 676.333333333 550 645 c 128
 572.666666667 613.666666667 584 571.333333333 584 518 c 0
 584 466.666666667 572.666666667 424.333333333 550 391 c 128
 527.333333333 357.666666667 495.666666667 332.833333333 455 316.5 c 128
 414.333333333 300.166666667 367.333333333 292 314 292 c 2
 193 292 l 1
 193 0 l 1
 101 0 l 1
193 367 m 1
 302 367 l 2
 366 367 413.666666667 379 445 403 c 128
 476.333333333 427 492 465.333333333 492 518 c 0
 492 571.333333333 475.833333333 608 443.5 628 c 128
 411.166666667 648 362.666666667 658 298 658 c 2
 193 658 l 1
 193 367 l 1
EndSplineSet
Substitution2: "NotoSansKR-Regular-'hwid' Half Widths lookup 35 subtable" P.hwid
Substitution2: "NotoSansKR-Regular-'fwid' Full Widths lookup 34 subtable" uniFF30
AlternateSubs2: "NotoSansKR-Regular-'aalt' Access All Alternates lookup 1 subtable" uniFF30 P.hwid
EndChar

StartChar: Q
Encoding: 81 81 48
Width: 742
Flags: HW
LayerCount: 2
Fore
SplineSet
371 -13 m 256
 309.666666667 -13 255.5 2.5 208.5 33.5 c 128
 161.5 64.5 124.666666667 108.666666667 98 166 c 128
 71.3333333333 223.333333333 58 291 58 369 c 0
 58 447.666666667 71.3333333333 515.166666667 98 571.5 c 128
 124.666666667 627.833333333 161.5 671 208.5 701 c 128
 255.5 731 309.666666667 746 371 746 c 256
 432.333333333 746 486.5 730.833333333 533.5 700.5 c 128
 580.5 670.166666667 617.333333333 627 644 571 c 128
 670.666666667 515 684 447.666666667 684 369 c 0
 684 291 670.666666667 223.333333333 644 166 c 128
 617.333333333 108.666666667 580.5 64.5 533.5 33.5 c 128
 486.5 2.5 432.333333333 -13 371 -13 c 256
371 64 m 0
 415 64 453.333333333 76.3333333333 486 101 c 128
 518.666666667 125.666666667 544 161 562 207 c 128
 580 253 589 307 589 369 c 0
 589 430.333333333 580 483.166666667 562 527.5 c 128
 544 571.833333333 518.666666667 605.833333333 486 629.5 c 128
 453.333333333 653.166666667 415 665 371 665 c 0
 327.666666667 665 289.5 653.166666667 256.5 629.5 c 128
 223.5 605.833333333 198 571.833333333 180 527.5 c 128
 162 483.166666667 153 430.333333333 153 369 c 0
 153 307 162 253 180 207 c 128
 198 161 223.5 125.666666667 256.5 101 c 128
 289.5 76.3333333333 327.666666667 64 371 64 c 0
595 -184 m 0
 549 -184 507.666666667 -176 471 -160 c 128
 434.333333333 -144 403.5 -121.833333333 378.5 -93.5 c 128
 353.5 -65.1666666667 334.333333333 -33.3333333333 321 2 c 1
 417 10 l 1
 427 -16 441.166666667 -37.6666666667 459.5 -55 c 128
 477.833333333 -72.3333333333 499.5 -85.3333333333 524.5 -94 c 128
 549.5 -102.666666667 576.333333333 -107 605 -107 c 0
 621.666666667 -107 636.333333333 -106 649 -104 c 128
 661.666666667 -102 672.666666667 -99.3333333333 682 -96 c 1
 700 -167 l 1
 689.333333333 -171.666666667 674.666666667 -175.666666667 656 -179 c 128
 637.333333333 -182.333333333 617 -184 595 -184 c 0
EndSplineSet
Substitution2: "NotoSansKR-Regular-'hwid' Half Widths lookup 35 subtable" Q.hwid
Substitution2: "NotoSansKR-Regular-'fwid' Full Widths lookup 34 subtable" uniFF31
AlternateSubs2: "NotoSansKR-Regular-'aalt' Access All Alternates lookup 1 subtable" uniFF31 Q.hwid
EndChar

StartChar: R
Encoding: 82 82 49
Width: 635
Flags: HW
LayerCount: 2
Fore
SplineSet
101 0 m 1
 101 733 l 1
 330 733 l 2
 380 733 424.166666667 726.5 462.5 713.5 c 128
 500.833333333 700.5 531 679 553 649 c 128
 575 619 586 578.666666667 586 528 c 0
 586 479.333333333 575 438.833333333 553 406.5 c 128
 531 374.166666667 500.833333333 350.166666667 462.5 334.5 c 128
 424.166666667 318.833333333 380 311 330 311 c 2
 193 311 l 1
 193 0 l 1
 101 0 l 1
193 385 m 1
 316 385 l 2
 373.333333333 385 417.333333333 396.833333333 448 420.5 c 128
 478.666666667 444.166666667 494 480 494 528 c 256
 494 576 478.666666667 609.666666667 448 629 c 128
 417.333333333 648.333333333 373.333333333 658 316 658 c 2
 193 658 l 1
 193 385 l 1
503 0 m 1
 311 335 l 1
 384 384 l 1
 607 0 l 1
 503 0 l 1
EndSplineSet
Substitution2: "NotoSansKR-Regular-'hwid' Half Widths lookup 35 subtable" R.hwid
Substitution2: "NotoSansKR-Regular-'fwid' Full Widths lookup 34 subtable" uniFF32
AlternateSubs2: "NotoSansKR-Regular-'aalt' Access All Alternates lookup 1 subtable" uniFF32 R.hwid
EndChar

StartChar: S
Encoding: 83 83 50
Width: 596
Flags: HW
LayerCount: 2
Fore
SplineSet
304 -13 m 0
 252 -13 204.166666667 -3.33333333333 160.5 16 c 128
 116.833333333 35.3333333333 79.3333333333 61.6666666667 48 95 c 1
 103 159 l 1
 129 131.666666667 159.666666667 109.666666667 195 93 c 128
 230.333333333 76.3333333333 267 68 305 68 c 0
 353.666666667 68 391.5 79 418.5 101 c 128
 445.5 123 459 151.666666667 459 187 c 0
 459 213 453.5 233.666666667 442.5 249 c 128
 431.5 264.333333333 416.833333333 277.166666667 398.5 287.5 c 128
 380.166666667 297.833333333 359.333333333 308 336 318 c 2
 231 364 l 2
 208.333333333 374 185.5 386.666666667 162.5 402 c 128
 139.5 417.333333333 120.333333333 437.333333333 105 462 c 128
 89.6666666667 486.666666667 82 516.666666667 82 552 c 0
 82 590 92 623.5 112 652.5 c 128
 132 681.5 159.333333333 704.333333333 194 721 c 128
 228.666666667 737.666666667 268.333333333 746 313 746 c 0
 357 746 397.5 737.666666667 434.5 721 c 128
 471.5 704.333333333 502.666666667 682.666666667 528 656 c 1
 480 597 l 1
 457.333333333 617.666666667 432.5 634.166666667 405.5 646.5 c 128
 378.5 658.833333333 347.666666667 665 313 665 c 0
 271.666666667 665 238.5 655.5 213.5 636.5 c 128
 188.5 617.5 176 591.666666667 176 559 c 0
 176 535 182.166666667 515.333333333 194.5 500 c 128
 206.833333333 484.666666667 222.333333333 472.333333333 241 463 c 128
 259.666666667 453.666666667 278.666666667 444.666666667 298 436 c 2
 402 391 l 2
 430 379 455.5 364.666666667 478.5 348 c 128
 501.5 331.333333333 519.666666667 310.666666667 533 286 c 128
 546.333333333 261.333333333 553 231 553 195 c 0
 553 156.333333333 543 121.166666667 523 89.5 c 128
 503 57.8333333333 474.333333333 32.8333333333 437 14.5 c 128
 399.666666667 -3.83333333333 355.333333333 -13 304 -13 c 0
EndSplineSet
Substitution2: "NotoSansKR-Regular-'hwid' Half Widths lookup 35 subtable" S.hwid
Substitution2: "NotoSansKR-Regular-'fwid' Full Widths lookup 34 subtable" uniFF33
AlternateSubs2: "NotoSansKR-Regular-'aalt' Access All Alternates lookup 1 subtable" uniFF33 S.hwid
EndChar

StartChar: T
Encoding: 84 84 51
Width: 599
Flags: HW
LayerCount: 2
Fore
SplineSet
253 0 m 1
 253 655 l 1
 31 655 l 1
 31 733 l 1
 568 733 l 1
 568 655 l 1
 346 655 l 1
 346 0 l 1
 253 0 l 1
EndSplineSet
Substitution2: "NotoSansKR-Regular-'hwid' Half Widths lookup 35 subtable" T.hwid
Substitution2: "NotoSansKR-Regular-'fwid' Full Widths lookup 34 subtable" uniFF34
AlternateSubs2: "NotoSansKR-Regular-'aalt' Access All Alternates lookup 1 subtable" uniFF34 T.hwid
EndChar

StartChar: U
Encoding: 85 85 52
Width: 721
Flags: HW
LayerCount: 2
Fore
SplineSet
361 -13 m 256
 323.666666667 -13 289 -7.66666666667 257 3 c 128
 225 13.6666666667 197.166666667 31.3333333333 173.5 56 c 128
 149.833333333 80.6666666667 131.333333333 113.333333333 118 154 c 128
 104.666666667 194.666666667 98 244 98 302 c 2
 98 733 l 1
 190 733 l 1
 190 300 l 2
 190 241.333333333 197.666666667 195.166666667 213 161.5 c 128
 228.333333333 127.833333333 248.833333333 103.833333333 274.5 89.5 c 128
 300.166666667 75.1666666667 329 68 361 68 c 0
 393.666666667 68 423 75.1666666667 449 89.5 c 128
 475 103.833333333 495.833333333 127.833333333 511.5 161.5 c 128
 527.166666667 195.166666667 535 241.333333333 535 300 c 2
 535 733 l 1
 624 733 l 1
 624 302 l 2
 624 244 617.5 194.666666667 604.5 154 c 128
 591.5 113.333333333 573 80.6666666667 549 56 c 128
 525 31.3333333333 497 13.6666666667 465 3 c 128
 433 -7.66666666667 398.333333333 -13 361 -13 c 256
EndSplineSet
Substitution2: "NotoSansKR-Regular-'hwid' Half Widths lookup 35 subtable" U.hwid
Substitution2: "NotoSansKR-Regular-'fwid' Full Widths lookup 34 subtable" uniFF35
AlternateSubs2: "NotoSansKR-Regular-'aalt' Access All Alternates lookup 1 subtable" uniFF35 U.hwid
EndChar

StartChar: V
Encoding: 86 86 53
Width: 575
Flags: HW
LayerCount: 2
Fore
SplineSet
235 0 m 1
 1 733 l 1
 98 733 l 1
 217 336 l 2
 229.666666667 293.333333333 241.166666667 253.166666667 251.5 215.5 c 128
 261.833333333 177.833333333 274 137.333333333 288 94 c 1
 292 94 l 1
 306 137.333333333 318.166666667 177.833333333 328.5 215.5 c 128
 338.833333333 253.166666667 350.333333333 293.333333333 363 336 c 2
 481 733 l 1
 575 733 l 1
 342 0 l 1
 235 0 l 1
EndSplineSet
Substitution2: "NotoSansKR-Regular-'hwid' Half Widths lookup 35 subtable" V.hwid
Substitution2: "NotoSansKR-Regular-'fwid' Full Widths lookup 34 subtable" uniFF36
AlternateSubs2: "NotoSansKR-Regular-'aalt' Access All Alternates lookup 1 subtable" uniFF36 V.hwid
EndChar

StartChar: W
Encoding: 87 87 54
Width: 878
Flags: HW
LayerCount: 2
Fore
SplineSet
181 0 m 1
 26 733 l 1
 121 733 l 1
 198 334 l 2
 205.333333333 294.666666667 212.666666667 255.166666667 220 215.5 c 128
 227.333333333 175.833333333 234.666666667 136 242 96 c 1
 246 96 l 1
 254.666666667 136 263.333333333 175.833333333 272 215.5 c 128
 280.666666667 255.166666667 289.333333333 294.666666667 298 334 c 2
 399 733 l 1
 484 733 l 1
 586 334 l 2
 594.666666667 294.666666667 603.333333333 255.166666667 612 215.5 c 128
 620.666666667 175.833333333 629.666666667 136 639 96 c 1
 644 96 l 1
 650.666666667 136 657.333333333 175.833333333 664 215.5 c 128
 670.666666667 255.166666667 677.333333333 294.666666667 684 334 c 2
 763 733 l 1
 851 733 l 1
 700 0 l 1
 588 0 l 1
 477 442 l 2
 470.333333333 471.333333333 464.166666667 499.5 458.5 526.5 c 128
 452.833333333 553.5 447 581 441 609 c 1
 437 609 l 1
 431.666666667 581 425.666666667 553.5 419 526.5 c 128
 412.333333333 499.5 406 471.333333333 400 442 c 2
 291 0 l 1
 181 0 l 1
EndSplineSet
Substitution2: "NotoSansKR-Regular-'hwid' Half Widths lookup 35 subtable" W.hwid
Substitution2: "NotoSansKR-Regular-'fwid' Full Widths lookup 34 subtable" uniFF37
AlternateSubs2: "NotoSansKR-Regular-'aalt' Access All Alternates lookup 1 subtable" uniFF37 W.hwid
EndChar

StartChar: X
Encoding: 88 88 55
Width: 573
Flags: HW
LayerCount: 2
Fore
SplineSet
17 0 m 1
 231 379 l 1
 31 733 l 1
 133 733 l 1
 233 546 l 2
 242.333333333 528.666666667 251.333333333 511.833333333 260 495.5 c 128
 268.666666667 479.166666667 279 460 291 438 c 1
 295 438 l 1
 305 460 313.833333333 479.166666667 321.5 495.5 c 128
 329.166666667 511.833333333 337.666666667 528.666666667 347 546 c 2
 445 733 l 1
 542 733 l 1
 342 374 l 1
 557 0 l 1
 455 0 l 1
 347 198 l 2
 337 216 326.833333333 234.666666667 316.5 254 c 128
 306.166666667 273.333333333 295 294.333333333 283 317 c 1
 279 317 l 1
 268.333333333 294.333333333 258.166666667 273.333333333 248.5 254 c 128
 238.833333333 234.666666667 229.333333333 216 220 198 c 2
 115 0 l 1
 17 0 l 1
EndSplineSet
Substitution2: "NotoSansKR-Regular-'hwid' Half Widths lookup 35 subtable" X.hwid
Substitution2: "NotoSansKR-Regular-'fwid' Full Widths lookup 34 subtable" uniFF38
AlternateSubs2: "NotoSansKR-Regular-'aalt' Access All Alternates lookup 1 subtable" uniFF38 X.hwid
EndChar

StartChar: Y
Encoding: 89 89 56
Width: 531
Flags: HW
LayerCount: 2
Fore
SplineSet
219 0 m 1
 219 284 l 1
 -1 733 l 1
 97 733 l 1
 192 526 l 2
 204 498.666666667 215.666666667 472 227 446 c 128
 238.333333333 420 250.666666667 393 264 365 c 1
 268 365 l 1
 281.333333333 393 294 420 306 446 c 128
 318 472 330 498.666666667 342 526 c 2
 436 733 l 1
 532 733 l 1
 311 284 l 1
 311 0 l 1
 219 0 l 1
EndSplineSet
Substitution2: "NotoSansKR-Regular-'hwid' Half Widths lookup 35 subtable" Y.hwid
Substitution2: "NotoSansKR-Regular-'fwid' Full Widths lookup 34 subtable" uniFF39
AlternateSubs2: "NotoSansKR-Regular-'aalt' Access All Alternates lookup 1 subtable" uniFF39 Y.hwid
EndChar

StartChar: Z
Encoding: 90 90 57
Width: 603
Flags: HW
LayerCount: 2
Fore
SplineSet
50 0 m 1
 50 56 l 1
 437 655 l 1
 85 655 l 1
 85 733 l 1
 551 733 l 1
 551 678 l 1
 164 79 l 1
 556 79 l 1
 556 0 l 1
 50 0 l 1
EndSplineSet
Substitution2: "NotoSansKR-Regular-'hwid' Half Widths lookup 35 subtable" Z.hwid
Substitution2: "NotoSansKR-Regular-'fwid' Full Widths lookup 34 subtable" uniFF3A
AlternateSubs2: "NotoSansKR-Regular-'aalt' Access All Alternates lookup 1 subtable" uniFF3A Z.hwid
EndChar

StartChar: bracketleft
Encoding: 91 91 58
Width: 338
Flags: HW
LayerCount: 2
Fore
SplineSet
106 -170 m 1
 106 792 l 1
 304 792 l 1
 304 739 l 1
 174 739 l 1
 174 -118 l 1
 304 -118 l 1
 304 -170 l 1
 106 -170 l 1
EndSplineSet
Substitution2: "NotoSansKR-Regular-'locl' Localized Forms lookup 39 subtable" bracketleft.locl
Substitution2: "NotoSansKR-Regular-'hwid' Half Widths lookup 35 subtable" bracketleft.hwid
Substitution2: "NotoSansKR-Regular-'fwid' Full Widths lookup 34 subtable" uniFF3B
AlternateSubs2: "NotoSansKR-Regular-'aalt' Access All Alternates lookup 1 subtable" uniFF3B bracketleft.hwid
EndChar

StartChar: backslash
Encoding: 92 92 59
Width: 392
Flags: HW
LayerCount: 2
Fore
SplineSet
314 -179 m 1
 15 794 l 1
 81 794 l 1
 380 -179 l 1
 314 -179 l 1
EndSplineSet
Substitution2: "NotoSansKR-Regular-'hwid' Half Widths lookup 35 subtable" backslash.hwid
Substitution2: "NotoSansKR-Regular-'fwid' Full Widths lookup 34 subtable" uniFF3C
AlternateSubs2: "NotoSansKR-Regular-'aalt' Access All Alternates lookup 1 subtable" uniFF3C backslash.hwid
EndChar

StartChar: bracketright
Encoding: 93 93 60
Width: 338
Flags: HW
LayerCount: 2
Fore
SplineSet
34 -170 m 1
 34 -118 l 1
 164 -118 l 1
 164 739 l 1
 34 739 l 1
 34 792 l 1
 233 792 l 1
 233 -170 l 1
 34 -170 l 1
EndSplineSet
Substitution2: "NotoSansKR-Regular-'locl' Localized Forms lookup 39 subtable" bracketright.locl
Substitution2: "NotoSansKR-Regular-'hwid' Half Widths lookup 35 subtable" bracketright.hwid
Substitution2: "NotoSansKR-Regular-'fwid' Full Widths lookup 34 subtable" uniFF3D
AlternateSubs2: "NotoSansKR-Regular-'aalt' Access All Alternates lookup 1 subtable" uniFF3D bracketright.hwid
EndChar

StartChar: asciicircum
Encoding: 94 94 61
Width: 555
Flags: HW
LayerCount: 2
Fore
SplineSet
68 317 m 1
 237 749 l 1
 318 749 l 1
 488 317 l 1
 408 317 l 1
 335 514 l 1
 280 663 l 1
 275 663 l 1
 221 514 l 1
 147 317 l 1
 68 317 l 1
EndSplineSet
Substitution2: "NotoSansKR-Regular-'hwid' Half Widths lookup 35 subtable" asciicircum.hwid
Substitution2: "NotoSansKR-Regular-'fwid' Full Widths lookup 34 subtable" uniFF3E
AlternateSubs2: "NotoSansKR-Regular-'aalt' Access All Alternates lookup 1 subtable" uniFF3E asciicircum.hwid
EndChar

StartChar: underscore
Encoding: 95 95 62
Width: 559
Flags: HW
LayerCount: 2
Fore
SplineSet
13 -140 m 1
 13 -80 l 1
 545 -80 l 1
 545 -140 l 1
 13 -140 l 1
EndSplineSet
Substitution2: "NotoSansKR-Regular-'hwid' Half Widths lookup 35 subtable" underscore.hwid
Substitution2: "NotoSansKR-Regular-'fwid' Full Widths lookup 34 subtable" uniFF3F
AlternateSubs2: "NotoSansKR-Regular-'aalt' Access All Alternates lookup 1 subtable" uniFF3F underscore.hwid
EndChar

StartChar: grave
Encoding: 96 96 63
Width: 606
Flags: HW
LayerCount: 2
Fore
SplineSet
319 640 m 1
 144 812 l 1
 208 872 l 1
 366 686 l 1
 319 640 l 1
EndSplineSet
Substitution2: "NotoSansKR-Regular-'hwid' Half Widths lookup 35 subtable" grave.hwid
Substitution2: "NotoSansKR-Regular-'fwid' Full Widths lookup 34 subtable" uni2035
AlternateSubs2: "NotoSansKR-Regular-'aalt' Access All Alternates lookup 1 subtable" uni2035 grave.hwid
EndChar

StartChar: a
Encoding: 97 97 64
Width: 563
Flags: HW
LayerCount: 2
Fore
SplineSet
217 -13 m 0
 187 -13 160 -7 136 5 c 128
 112 17 93.1666666667 34.5 79.5 57.5 c 128
 65.8333333333 80.5 59 108.333333333 59 141 c 0
 59 200.333333333 85.5 245.833333333 138.5 277.5 c 128
 191.5 309.166666667 276 331.333333333 392 344 c 1
 392 367.333333333 388.833333333 389.5 382.5 410.5 c 128
 376.166666667 431.5 365 448.5 349 461.5 c 128
 333 474.5 310 481 280 481 c 0
 248.666666667 481 219.166666667 474.833333333 191.5 462.5 c 128
 163.833333333 450.166666667 139 437 117 423 c 1
 82 486 l 1
 98.6666666667 496.666666667 118 507.5 140 518.5 c 128
 162 529.5 186 538.666666667 212 546 c 128
 238 553.333333333 265.666666667 557 295 557 c 0
 339 557 374.833333333 547.666666667 402.5 529 c 128
 430.166666667 510.333333333 450.5 484.5 463.5 451.5 c 128
 476.5 418.5 483 379.333333333 483 334 c 2
 483 0 l 1
 408 0 l 1
 400 65 l 1
 397 65 l 1
 371.666666667 43.6666666667 343.833333333 25.3333333333 313.5 10 c 128
 283.166666667 -5.33333333333 251 -13 217 -13 c 0
243 61 m 0
 269 61 293.833333333 67 317.5 79 c 128
 341.166666667 91 366 108.666666667 392 132 c 1
 392 283 l 1
 331.333333333 276.333333333 283 266.833333333 247 254.5 c 128
 211 242.166666667 185.333333333 227.166666667 170 209.5 c 128
 154.666666667 191.833333333 147 171 147 147 c 0
 147 115.666666667 156.333333333 93.5 175 80.5 c 128
 193.666666667 67.5 216.333333333 61 243 61 c 0
EndSplineSet
Substitution2: "NotoSansKR-Regular-'hwid' Half Widths lookup 35 subtable" a.hwid
Substitution2: "NotoSansKR-Regular-'fwid' Full Widths lookup 34 subtable" uniFF41
AlternateSubs2: "NotoSansKR-Regular-'aalt' Access All Alternates lookup 1 subtable" uniFF41 a.hwid
EndChar

StartChar: b
Encoding: 98 98 65
Width: 618
Flags: HW
LayerCount: 2
Fore
SplineSet
331 -13 m 0
 306.333333333 -13 280.333333333 -7 253 5 c 128
 225.666666667 17 200.333333333 34 177 56 c 1
 173 56 l 1
 165 0 l 1
 92 0 l 1
 92 796 l 1
 184 796 l 1
 184 578 l 1
 180 481 l 1
 204.666666667 502.333333333 231.666666667 520.333333333 261 535 c 128
 290.333333333 549.666666667 320.333333333 557 351 557 c 0
 397.666666667 557 437 545.5 469 522.5 c 128
 501 499.5 525.333333333 467.333333333 542 426 c 128
 558.666666667 384.666666667 567 336 567 280 c 0
 567 218.666666667 555.833333333 166 533.5 122 c 128
 511.166666667 78 482.166666667 44.5 446.5 21.5 c 128
 410.833333333 -1.5 372.333333333 -13 331 -13 c 0
316 64 m 0
 346 64 372.833333333 72.5 396.5 89.5 c 128
 420.166666667 106.5 438.666666667 131.166666667 452 163.5 c 128
 465.333333333 195.833333333 472 234.333333333 472 279 c 0
 472 319 467.166666667 354.166666667 457.5 384.5 c 128
 447.833333333 414.833333333 432.666666667 438.333333333 412 455 c 128
 391.333333333 471.666666667 363.333333333 480 328 480 c 0
 305.333333333 480 282 473.666666667 258 461 c 128
 234 448.333333333 209.333333333 430 184 406 c 1
 184 120 l 1
 207.333333333 99.3333333333 230.833333333 84.8333333333 254.5 76.5 c 128
 278.166666667 68.1666666667 298.666666667 64 316 64 c 0
EndSplineSet
Substitution2: "NotoSansKR-Regular-'hwid' Half Widths lookup 35 subtable" b.hwid
Substitution2: "NotoSansKR-Regular-'fwid' Full Widths lookup 34 subtable" uniFF42
AlternateSubs2: "NotoSansKR-Regular-'aalt' Access All Alternates lookup 1 subtable" uniFF42 b.hwid
EndChar

StartChar: c
Encoding: 99 99 66
Width: 510
Flags: HW
LayerCount: 2
Fore
SplineSet
306 -13 m 0
 258 -13 214.833333333 -1.83333333333 176.5 20.5 c 128
 138.166666667 42.8333333333 107.833333333 75.1666666667 85.5 117.5 c 128
 63.1666666667 159.833333333 52 211 52 271 c 0
 52 331.666666667 64 383.166666667 88 425.5 c 128
 112 467.833333333 144 500.333333333 184 523 c 128
 224 545.666666667 267 557 313 557 c 0
 348.333333333 557 378.833333333 550.666666667 404.5 538 c 128
 430.166666667 525.333333333 452.333333333 510.333333333 471 493 c 1
 425 433 l 1
 409.666666667 447 393.166666667 458.333333333 375.5 467 c 128
 357.833333333 475.666666667 338.333333333 480 317 480 c 0
 284.333333333 480 255 471.333333333 229 454 c 128
 203 436.666666667 182.666666667 412.333333333 168 381 c 128
 153.333333333 349.666666667 146 313 146 271 c 0
 146 229.666666667 153.166666667 193.333333333 167.5 162 c 128
 181.833333333 130.666666667 201.5 106.333333333 226.5 89 c 128
 251.5 71.6666666667 280.666666667 63 314 63 c 0
 339.333333333 63 362.666666667 68.1666666667 384 78.5 c 128
 405.333333333 88.8333333333 424.666666667 101.666666667 442 117 c 1
 482 55 l 1
 457.333333333 33.6666666667 430 17 400 5 c 128
 370 -7 338.666666667 -13 306 -13 c 0
EndSplineSet
Substitution2: "NotoSansKR-Regular-'hwid' Half Widths lookup 35 subtable" c.hwid
Substitution2: "NotoSansKR-Regular-'fwid' Full Widths lookup 34 subtable" uniFF43
AlternateSubs2: "NotoSansKR-Regular-'aalt' Access All Alternates lookup 1 subtable" uniFF43 c.hwid
EndChar

StartChar: d
Encoding: 100 100 67
Width: 620
Flags: HW
LayerCount: 2
Fore
SplineSet
277 -13 m 0
 231.666666667 -13 192.166666667 -2 158.5 20 c 128
 124.833333333 42 98.8333333333 74.1666666667 80.5 116.5 c 128
 62.1666666667 158.833333333 53 210.333333333 53 271 c 0
 53 329.666666667 64 380.333333333 86 423 c 128
 108 465.666666667 136.833333333 498.666666667 172.5 522 c 128
 208.166666667 545.333333333 246.666666667 557 288 557 c 0
 320 557 347.5 551.5 370.5 540.5 c 128
 393.5 529.5 417 514 441 494 c 1
 436 587 l 1
 436 796 l 1
 528 796 l 1
 528 0 l 1
 453 0 l 1
 445 64 l 1
 442 64 l 1
 420.666666667 42.6666666667 396 24.5 368 9.5 c 128
 340 -5.5 309.666666667 -13 277 -13 c 0
297 64 m 0
 322.333333333 64 346.333333333 70.1666666667 369 82.5 c 128
 391.666666667 94.8333333333 414 113.333333333 436 138 c 1
 436 423 l 1
 413.333333333 443.666666667 391.333333333 458.333333333 370 467 c 128
 348.666666667 475.666666667 326.666666667 480 304 480 c 0
 275.333333333 480 249.166666667 471.166666667 225.5 453.5 c 128
 201.833333333 435.833333333 182.833333333 411.5 168.5 380.5 c 128
 154.166666667 349.5 147 313.333333333 147 272 c 0
 147 228.666666667 153 191.333333333 165 160 c 128
 177 128.666666667 194.166666667 104.833333333 216.5 88.5 c 128
 238.833333333 72.1666666667 265.666666667 64 297 64 c 0
EndSplineSet
Substitution2: "NotoSansKR-Regular-'hwid' Half Widths lookup 35 subtable" d.hwid
Substitution2: "NotoSansKR-Regular-'fwid' Full Widths lookup 34 subtable" uniFF44
AlternateSubs2: "NotoSansKR-Regular-'aalt' Access All Alternates lookup 1 subtable" uniFF44 d.hwid
EndChar

StartChar: e
Encoding: 101 101 68
Width: 554
Flags: HW
LayerCount: 2
Fore
SplineSet
312 -13 m 0
 263.333333333 -13 219.333333333 -1.66666666667 180 21 c 128
 140.666666667 43.6666666667 109.5 76.1666666667 86.5 118.5 c 128
 63.5 160.833333333 52 211.666666667 52 271 c 0
 52 315.666666667 58.6666666667 355.5 72 390.5 c 128
 85.3333333333 425.5 103.5 455.5 126.5 480.5 c 128
 149.5 505.5 175.666666667 524.5 205 537.5 c 128
 234.333333333 550.5 264.333333333 557 295 557 c 0
 341.666666667 557 381 546.666666667 413 526 c 128
 445 505.333333333 469.5 475.833333333 486.5 437.5 c 128
 503.5 399.166666667 512 354 512 302 c 0
 512 292 511.666666667 282.666666667 511 274 c 128
 510.333333333 265.333333333 509.333333333 257.333333333 508 250 c 1
 142 250 l 1
 144 211.333333333 152.833333333 177.833333333 168.5 149.5 c 128
 184.166666667 121.166666667 205 99.1666666667 231 83.5 c 128
 257 67.8333333333 287.333333333 60 322 60 c 0
 348.666666667 60 372.833333333 63.8333333333 394.5 71.5 c 128
 416.166666667 79.1666666667 437.333333333 89.6666666667 458 103 c 1
 490 42 l 1
 466.666666667 26.6666666667 440.333333333 13.6666666667 411 3 c 128
 381.666666667 -7.66666666667 348.666666667 -13 312 -13 c 0
141 315 m 1
 432 315 l 1
 432 369.666666667 420.166666667 411.5 396.5 440.5 c 128
 372.833333333 469.5 339.666666667 484 297 484 c 0
 271.666666667 484 247.833333333 477.333333333 225.5 464 c 128
 203.166666667 450.666666667 184.5 431.666666667 169.5 407 c 128
 154.5 382.333333333 145 351.666666667 141 315 c 1
EndSplineSet
Substitution2: "NotoSansKR-Regular-'hwid' Half Widths lookup 35 subtable" e.hwid
Substitution2: "NotoSansKR-Regular-'fwid' Full Widths lookup 34 subtable" uniFF45
AlternateSubs2: "NotoSansKR-Regular-'aalt' Access All Alternates lookup 1 subtable" uniFF45 e.hwid
EndChar

StartChar: f
Encoding: 102 102 69
Width: 325
Flags: HW
LayerCount: 2
Fore
SplineSet
107 0 m 1
 107 630 l 2
 107 666.666666667 112.666666667 698.333333333 124 725 c 128
 135.333333333 751.666666667 152.666666667 772.333333333 176 787 c 128
 199.333333333 801.666666667 229 809 265 809 c 0
 281.666666667 809 297.833333333 807.333333333 313.5 804 c 128
 329.166666667 800.666666667 343.333333333 796.666666667 356 792 c 1
 336 721 l 1
 316 731 295.666666667 736 275 736 c 0
 249 736 229.666666667 727 217 709 c 128
 204.333333333 691 198 664.333333333 198 629 c 2
 198 0 l 1
 107 0 l 1
33 469 m 1
 33 538 l 1
 111 543 l 1
 313 543 l 1
 313 469 l 1
 33 469 l 1
EndSplineSet
Substitution2: "NotoSansKR-Regular-'hwid' Half Widths lookup 35 subtable" f.hwid
Substitution2: "NotoSansKR-Regular-'fwid' Full Widths lookup 34 subtable" uniFF46
AlternateSubs2: "NotoSansKR-Regular-'aalt' Access All Alternates lookup 1 subtable" uniFF46 f.hwid
EndChar

StartChar: g
Encoding: 103 103 70
Width: 564
Flags: HW
LayerCount: 2
Fore
SplineSet
275 -250 m 0
 231 -250 192 -244.333333333 158 -233 c 128
 124 -221.666666667 97.6666666667 -205.166666667 79 -183.5 c 128
 60.3333333333 -161.833333333 51 -135.666666667 51 -105 c 0
 51 -81.6666666667 58 -59.1666666667 72 -37.5 c 128
 86 -15.8333333333 105.666666667 2.66666666667 131 18 c 1
 131 23 l 1
 117 31.6666666667 105.333333333 43.3333333333 96 58 c 128
 86.6666666667 72.6666666667 82 90.6666666667 82 112 c 0
 82 134.666666667 88.5 154.666666667 101.5 172 c 128
 114.5 189.333333333 128 203 142 213 c 1
 142 217 l 1
 124 231 107.666666667 250.666666667 93 276 c 128
 78.3333333333 301.333333333 71 330.333333333 71 363 c 0
 71 403 80.3333333333 437.5 99 466.5 c 128
 117.666666667 495.5 142.5 517.833333333 173.5 533.5 c 128
 204.5 549.166666667 238 557 274 557 c 0
 290 557 304.5 555.666666667 317.5 553 c 128
 330.5 550.333333333 341.666666667 547 351 543 c 1
 540 543 l 1
 540 473 l 1
 429 473 l 1
 442.333333333 460.333333333 453 444.333333333 461 425 c 128
 469 405.666666667 473 384.333333333 473 361 c 0
 473 322.333333333 464.166666667 288.833333333 446.5 260.5 c 128
 428.833333333 232.166666667 405 210.333333333 375 195 c 128
 345 179.666666667 311.333333333 172 274 172 c 0
 261.333333333 172 247.833333333 173.666666667 233.5 177 c 128
 219.166666667 180.333333333 206 185 194 191 c 1
 184 183 175.666666667 174 169 164 c 128
 162.333333333 154 159 141.333333333 159 126 c 0
 159 109.333333333 165.666666667 95.3333333333 179 84 c 128
 192.333333333 72.6666666667 217.333333333 67 254 67 c 2
 361 67 l 2
 423.666666667 67 470.833333333 56.6666666667 502.5 36 c 128
 534.166666667 15.3333333333 550 -17.3333333333 550 -62 c 0
 550 -95.3333333333 538.666666667 -126.333333333 516 -155 c 128
 493.333333333 -183.666666667 461.5 -206.666666667 420.5 -224 c 128
 379.5 -241.333333333 331 -250 275 -250 c 0
274 234 m 0
 295.333333333 234 314.833333333 239.333333333 332.5 250 c 128
 350.166666667 260.666666667 364.166666667 275.666666667 374.5 295 c 128
 384.833333333 314.333333333 390 337 390 363 c 0
 390 389.666666667 384.833333333 412.5 374.5 431.5 c 128
 364.166666667 450.5 350.333333333 465 333 475 c 128
 315.666666667 485 296 490 274 490 c 0
 253.333333333 490 234.166666667 485 216.5 475 c 128
 198.833333333 465 184.833333333 450.666666667 174.5 432 c 128
 164.166666667 413.333333333 159 390.333333333 159 363 c 0
 159 337 164.333333333 314.333333333 175 295 c 128
 185.666666667 275.666666667 199.666666667 260.666666667 217 250 c 128
 234.333333333 239.333333333 253.333333333 234 274 234 c 0
288 -187 m 0
 322.666666667 -187 352.833333333 -181.666666667 378.5 -171 c 128
 404.166666667 -160.333333333 424.166666667 -146.5 438.5 -129.5 c 128
 452.833333333 -112.5 460 -95 460 -77 c 0
 460 -51 450.666666667 -33 432 -23 c 128
 413.333333333 -13 386 -8 350 -8 c 2
 256 -8 l 2
 246 -8 234.833333333 -7.5 222.5 -6.5 c 128
 210.166666667 -5.5 198 -3.33333333333 186 0 c 1
 166.666666667 -13.3333333333 152.666666667 -28.1666666667 144 -44.5 c 128
 135.333333333 -60.8333333333 131 -76.6666666667 131 -92 c 0
 131 -120.666666667 144.833333333 -143.666666667 172.5 -161 c 128
 200.166666667 -178.333333333 238.666666667 -187 288 -187 c 0
EndSplineSet
Substitution2: "NotoSansKR-Regular-'hwid' Half Widths lookup 35 subtable" g.hwid
Substitution2: "NotoSansKR-Regular-'fwid' Full Widths lookup 34 subtable" uniFF47
AlternateSubs2: "NotoSansKR-Regular-'aalt' Access All Alternates lookup 1 subtable" uniFF47 g.hwid
EndChar

StartChar: h
Encoding: 104 104 71
Width: 607
Flags: HW
LayerCount: 2
Fore
SplineSet
92 0 m 1
 92 796 l 1
 184 796 l 1
 184 578 l 1
 180 466 l 1
 205.333333333 491.333333333 232.333333333 512.833333333 261 530.5 c 128
 289.666666667 548.166666667 322.666666667 557 360 557 c 0
 417.333333333 557 459.333333333 538.833333333 486 502.5 c 128
 512.666666667 466.166666667 526 413.333333333 526 344 c 2
 526 0 l 1
 435 0 l 1
 435 332 l 2
 435 383.333333333 426.833333333 420.333333333 410.5 443 c 128
 394.166666667 465.666666667 368 477 332 477 c 0
 304 477 279 470 257 456 c 128
 235 442 210.666666667 421.333333333 184 394 c 1
 184 0 l 1
 92 0 l 1
EndSplineSet
Substitution2: "NotoSansKR-Regular-'hwid' Half Widths lookup 35 subtable" h.hwid
Substitution2: "NotoSansKR-Regular-'fwid' Full Widths lookup 34 subtable" uniFF48
AlternateSubs2: "NotoSansKR-Regular-'aalt' Access All Alternates lookup 1 subtable" uniFF48 h.hwid
EndChar

StartChar: i
Encoding: 105 105 72
Width: 275
Flags: HW
LayerCount: 2
Fore
SplineSet
92 0 m 1
 92 543 l 1
 184 543 l 1
 184 0 l 1
 92 0 l 1
138 655 m 256
 120 655 105.5 660.5 94.5 671.5 c 128
 83.5 682.5 78 697.333333333 78 716 c 0
 78 734 83.5 748.333333333 94.5 759 c 128
 105.5 769.666666667 120 775 138 775 c 256
 156 775 170.666666667 769.666666667 182 759 c 128
 193.333333333 748.333333333 199 734 199 716 c 0
 199 697.333333333 193.333333333 682.5 182 671.5 c 128
 170.666666667 660.5 156 655 138 655 c 256
EndSplineSet
Substitution2: "NotoSansKR-Regular-'hwid' Half Widths lookup 35 subtable" i.hwid
Substitution2: "NotoSansKR-Regular-'fwid' Full Widths lookup 34 subtable" uniFF49
AlternateSubs2: "NotoSansKR-Regular-'aalt' Access All Alternates lookup 1 subtable" uniFF49 i.hwid
EndChar

StartChar: j
Encoding: 106 106 73
Width: 275
Flags: HW
LayerCount: 2
Fore
SplineSet
35 -242 m 0
 19 -242 4.16666666667 -240.666666667 -9.5 -238 c 128
 -23.1666666667 -235.333333333 -34.6666666667 -232 -44 -228 c 1
 -26 -159 l 1
 -19.3333333333 -161.666666667 -11.3333333333 -164 -2 -166 c 128
 7.33333333333 -168 16.6666666667 -169 26 -169 c 0
 53.3333333333 -169 71.3333333333 -159.333333333 80 -140 c 128
 88.6666666667 -120.666666667 93 -94.6666666667 93 -62 c 2
 93 543 l 1
 184 543 l 1
 184 -62 l 2
 184 -98.6666666667 179.166666667 -130.5 169.5 -157.5 c 128
 159.833333333 -184.5 144 -205.333333333 122 -220 c 128
 100 -234.666666667 71 -242 35 -242 c 0
138 655 m 0
 120 655 105.333333333 660.5 94 671.5 c 128
 82.6666666667 682.5 77 697.333333333 77 716 c 0
 77 734 82.6666666667 748.333333333 94 759 c 128
 105.333333333 769.666666667 120 775 138 775 c 0
 155.333333333 775 169.833333333 769.666666667 181.5 759 c 128
 193.166666667 748.333333333 199 734 199 716 c 0
 199 697.333333333 193.166666667 682.5 181.5 671.5 c 128
 169.833333333 660.5 155.333333333 655 138 655 c 0
EndSplineSet
Substitution2: "NotoSansKR-Regular-'hwid' Half Widths lookup 35 subtable" j.hwid
Substitution2: "NotoSansKR-Regular-'fwid' Full Widths lookup 34 subtable" uniFF4A
AlternateSubs2: "NotoSansKR-Regular-'aalt' Access All Alternates lookup 1 subtable" uniFF4A j.hwid
EndChar

StartChar: k
Encoding: 107 107 74
Width: 552
Flags: HW
LayerCount: 2
Fore
SplineSet
92 0 m 1
 92 796 l 1
 182 796 l 1
 182 257 l 1
 186 257 l 1
 416 543 l 1
 518 543 l 1
 337 324 l 1
 542 0 l 1
 443 0 l 1
 284 262 l 1
 182 143 l 1
 182 0 l 1
 92 0 l 1
EndSplineSet
Substitution2: "NotoSansKR-Regular-'hwid' Half Widths lookup 35 subtable" k.hwid
Substitution2: "NotoSansKR-Regular-'fwid' Full Widths lookup 34 subtable" uniFF4B
AlternateSubs2: "NotoSansKR-Regular-'aalt' Access All Alternates lookup 1 subtable" uniFF4B k.hwid
EndChar

StartChar: l
Encoding: 108 108 75
Width: 284
Flags: HW
LayerCount: 2
Fore
SplineSet
188 -13 m 0
 165.333333333 -13 147 -8.33333333333 133 1 c 128
 119 10.3333333333 108.666666667 24.1666666667 102 42.5 c 128
 95.3333333333 60.8333333333 92 82.6666666667 92 108 c 2
 92 796 l 1
 184 796 l 1
 184 102 l 2
 184 88 186.5 78 191.5 72 c 128
 196.5 66 202.333333333 63 209 63 c 0
 211.666666667 63 214.333333333 63.1666666667 217 63.5 c 128
 219.666666667 63.8333333333 223.333333333 64.3333333333 228 65 c 1
 241 -5 l 1
 234.333333333 -7 227 -8.83333333333 219 -10.5 c 128
 211 -12.1666666667 200.666666667 -13 188 -13 c 0
EndSplineSet
Substitution2: "NotoSansKR-Regular-'hwid' Half Widths lookup 35 subtable" l.hwid
Substitution2: "NotoSansKR-Regular-'fwid' Full Widths lookup 34 subtable" uniFF4C
AlternateSubs2: "NotoSansKR-Regular-'aalt' Access All Alternates lookup 1 subtable" uniFF4C l.hwid
EndChar

StartChar: m
Encoding: 109 109 76
Width: 926
Flags: HW
LayerCount: 2
Fore
SplineSet
92 0 m 1
 92 543 l 1
 167 543 l 1
 176 464 l 1
 178 464 l 1
 202 490 228.166666667 512 256.5 530 c 128
 284.833333333 548 315 557 347 557 c 0
 389 557 421.666666667 547.666666667 445 529 c 128
 468.333333333 510.333333333 485.666666667 485 497 453 c 1
 525.666666667 483.666666667 554.5 508.666666667 583.5 528 c 128
 612.5 547.333333333 643.666666667 557 677 557 c 0
 732.333333333 557 773.5 538.833333333 800.5 502.5 c 128
 827.5 466.166666667 841 413.333333333 841 344 c 2
 841 0 l 1
 750 0 l 1
 750 332 l 2
 750 383.333333333 741.833333333 420.333333333 725.5 443 c 128
 709.166666667 465.666666667 683.666666667 477 649 477 c 0
 628.333333333 477 606.833333333 470.166666667 584.5 456.5 c 128
 562.166666667 442.833333333 538 422 512 394 c 1
 512 0 l 1
 421 0 l 1
 421 332 l 2
 421 383.333333333 412.833333333 420.333333333 396.5 443 c 128
 380.166666667 465.666666667 354.666666667 477 320 477 c 0
 299.333333333 477 277.666666667 470.166666667 255 456.5 c 128
 232.333333333 442.833333333 208.666666667 422 184 394 c 1
 184 0 l 1
 92 0 l 1
EndSplineSet
Substitution2: "NotoSansKR-Regular-'hwid' Half Widths lookup 35 subtable" m.hwid
Substitution2: "NotoSansKR-Regular-'fwid' Full Widths lookup 34 subtable" uniFF4D
AlternateSubs2: "NotoSansKR-Regular-'aalt' Access All Alternates lookup 1 subtable" uniFF4D m.hwid
EndChar

StartChar: n
Encoding: 110 110 77
Width: 610
Flags: HW
LayerCount: 2
Fore
SplineSet
92 0 m 1
 92 543 l 1
 167 543 l 1
 176 464 l 1
 178 464 l 1
 204 490 231.5 512 260.5 530 c 128
 289.5 548 322.666666667 557 360 557 c 0
 417.333333333 557 459.333333333 538.833333333 486 502.5 c 128
 512.666666667 466.166666667 526 413.333333333 526 344 c 2
 526 0 l 1
 435 0 l 1
 435 332 l 2
 435 383.333333333 426.833333333 420.333333333 410.5 443 c 128
 394.166666667 465.666666667 368 477 332 477 c 0
 304 477 279 470 257 456 c 128
 235 442 210.666666667 421.333333333 184 394 c 1
 184 0 l 1
 92 0 l 1
EndSplineSet
Substitution2: "NotoSansKR-Regular-'hwid' Half Widths lookup 35 subtable" n.hwid
Substitution2: "NotoSansKR-Regular-'fwid' Full Widths lookup 34 subtable" uniFF4E
AlternateSubs2: "NotoSansKR-Regular-'aalt' Access All Alternates lookup 1 subtable" uniFF4E n.hwid
EndChar

StartChar: o
Encoding: 111 111 78
Width: 606
Flags: HW
LayerCount: 2
Fore
SplineSet
303 -13 m 0
 259 -13 217.666666667 -1.83333333333 179 20.5 c 128
 140.333333333 42.8333333333 109.5 75.1666666667 86.5 117.5 c 128
 63.5 159.833333333 52 211 52 271 c 0
 52 331.666666667 63.5 383.166666667 86.5 425.5 c 128
 109.5 467.833333333 140.333333333 500.333333333 179 523 c 128
 217.666666667 545.666666667 259 557 303 557 c 0
 336.333333333 557 368.166666667 550.666666667 398.5 538 c 128
 428.833333333 525.333333333 455.666666667 506.666666667 479 482 c 128
 502.333333333 457.333333333 520.666666667 427.333333333 534 392 c 128
 547.333333333 356.666666667 554 316.333333333 554 271 c 0
 554 211 542.333333333 159.833333333 519 117.5 c 128
 495.666666667 75.1666666667 465 42.8333333333 427 20.5 c 128
 389 -1.83333333333 347.666666667 -13 303 -13 c 0
303 63 m 256
 334.333333333 63 361.833333333 71.6666666667 385.5 89 c 128
 409.166666667 106.333333333 427.666666667 130.666666667 441 162 c 128
 454.333333333 193.333333333 461 229.666666667 461 271 c 0
 461 313 454.333333333 349.666666667 441 381 c 128
 427.666666667 412.333333333 409.166666667 436.666666667 385.5 454 c 128
 361.833333333 471.333333333 334.333333333 480 303 480 c 256
 271.666666667 480 244.166666667 471.333333333 220.5 454 c 128
 196.833333333 436.666666667 178.5 412.333333333 165.5 381 c 128
 152.5 349.666666667 146 313 146 271 c 0
 146 229.666666667 152.5 193.333333333 165.5 162 c 128
 178.5 130.666666667 196.833333333 106.333333333 220.5 89 c 128
 244.166666667 71.6666666667 271.666666667 63 303 63 c 256
EndSplineSet
Substitution2: "NotoSansKR-Regular-'hwid' Half Widths lookup 35 subtable" o.hwid
Substitution2: "NotoSansKR-Regular-'fwid' Full Widths lookup 34 subtable" uniFF4F
AlternateSubs2: "NotoSansKR-Regular-'aalt' Access All Alternates lookup 1 subtable" uniFF4F o.hwid
EndChar

StartChar: p
Encoding: 112 112 79
Width: 620
Flags: HW
LayerCount: 2
Fore
SplineSet
92 -229 m 1
 92 543 l 1
 167 543 l 1
 176 480 l 1
 178 480 l 1
 202.666666667 500.666666667 229.833333333 518.666666667 259.5 534 c 128
 289.166666667 549.333333333 319.666666667 557 351 557 c 0
 397.666666667 557 437.166666667 545.5 469.5 522.5 c 128
 501.833333333 499.5 526.166666667 467.333333333 542.5 426 c 128
 558.833333333 384.666666667 567 336 567 280 c 0
 567 218 555.833333333 165.166666667 533.5 121.5 c 128
 511.166666667 77.8333333333 482.166666667 44.5 446.5 21.5 c 128
 410.833333333 -1.5 372.333333333 -13 331 -13 c 0
 306.333333333 -13 281.333333333 -7.5 256 3.5 c 128
 230.666666667 14.5 205.666666667 30 181 50 c 1
 184 -45 l 1
 184 -229 l 1
 92 -229 l 1
316 64 m 0
 346 64 372.833333333 72.5 396.5 89.5 c 128
 420.166666667 106.5 438.666666667 131.166666667 452 163.5 c 128
 465.333333333 195.833333333 472 234.333333333 472 279 c 0
 472 319 467.166666667 354.166666667 457.5 384.5 c 128
 447.833333333 414.833333333 432.666666667 438.333333333 412 455 c 128
 391.333333333 471.666666667 363.333333333 480 328 480 c 0
 305.333333333 480 282.166666667 473.666666667 258.5 461 c 128
 234.833333333 448.333333333 210 430 184 406 c 1
 184 120 l 1
 208 99.3333333333 231.666666667 84.8333333333 255 76.5 c 128
 278.333333333 68.1666666667 298.666666667 64 316 64 c 0
EndSplineSet
Substitution2: "NotoSansKR-Regular-'hwid' Half Widths lookup 35 subtable" p.hwid
Substitution2: "NotoSansKR-Regular-'fwid' Full Widths lookup 34 subtable" uniFF50
AlternateSubs2: "NotoSansKR-Regular-'aalt' Access All Alternates lookup 1 subtable" uniFF50 p.hwid
EndChar

StartChar: q
Encoding: 113 113 80
Width: 620
Flags: HW
LayerCount: 2
Fore
SplineSet
436 -229 m 1
 436 -36 l 1
 441 63 l 1
 419 41.6666666667 394.166666667 23.6666666667 366.5 9 c 128
 338.833333333 -5.66666666667 309 -13 277 -13 c 0
 231.666666667 -13 192.166666667 -2 158.5 20 c 128
 124.833333333 42 98.8333333333 74.1666666667 80.5 116.5 c 128
 62.1666666667 158.833333333 53 210.333333333 53 271 c 0
 53 329.666666667 64 380.333333333 86 423 c 128
 108 465.666666667 136.833333333 498.666666667 172.5 522 c 128
 208.166666667 545.333333333 246.666666667 557 288 557 c 0
 320 557 348 551.5 372 540.5 c 128
 396 529.5 420 513.333333333 444 492 c 1
 446 492 l 1
 455 543 l 1
 528 543 l 1
 528 -229 l 1
 436 -229 l 1
297 64 m 0
 322.333333333 64 346.333333333 70.1666666667 369 82.5 c 128
 391.666666667 94.8333333333 414 113.333333333 436 138 c 1
 436 423 l 1
 413.333333333 443.666666667 391.333333333 458.333333333 370 467 c 128
 348.666666667 475.666666667 326.666666667 480 304 480 c 0
 275.333333333 480 249.166666667 471.166666667 225.5 453.5 c 128
 201.833333333 435.833333333 182.833333333 411.5 168.5 380.5 c 128
 154.166666667 349.5 147 313.333333333 147 272 c 0
 147 228.666666667 153 191.333333333 165 160 c 128
 177 128.666666667 194.166666667 104.833333333 216.5 88.5 c 128
 238.833333333 72.1666666667 265.666666667 64 297 64 c 0
EndSplineSet
Substitution2: "NotoSansKR-Regular-'hwid' Half Widths lookup 35 subtable" q.hwid
Substitution2: "NotoSansKR-Regular-'fwid' Full Widths lookup 34 subtable" uniFF51
AlternateSubs2: "NotoSansKR-Regular-'aalt' Access All Alternates lookup 1 subtable" uniFF51 q.hwid
EndChar

StartChar: r
Encoding: 114 114 81
Width: 388
Flags: HW
LayerCount: 2
Fore
SplineSet
92 0 m 1
 92 543 l 1
 167 543 l 1
 176 444 l 1
 178 444 l 1
 196.666666667 478.666666667 219.5 506.166666667 246.5 526.5 c 128
 273.5 546.833333333 302 557 332 557 c 0
 344.666666667 557 355.5 556.166666667 364.5 554.5 c 128
 373.5 552.833333333 382 549.666666667 390 545 c 1
 373 466 l 1
 363.666666667 468.666666667 355.333333333 470.833333333 348 472.5 c 128
 340.666666667 474.166666667 331.333333333 475 320 475 c 0
 298 475 274.333333333 465.5 249 446.5 c 128
 223.666666667 427.5 202 395 184 349 c 1
 184 0 l 1
 92 0 l 1
EndSplineSet
Substitution2: "NotoSansKR-Regular-'hwid' Half Widths lookup 35 subtable" r.hwid
Substitution2: "NotoSansKR-Regular-'fwid' Full Widths lookup 34 subtable" uniFF52
AlternateSubs2: "NotoSansKR-Regular-'aalt' Access All Alternates lookup 1 subtable" uniFF52 r.hwid
EndChar

StartChar: s
Encoding: 115 115 82
Width: 468
Flags: HW
LayerCount: 2
Fore
SplineSet
234 -13 m 0
 196 -13 159.166666667 -5.83333333333 123.5 8.5 c 128
 87.8333333333 22.8333333333 57.3333333333 40.6666666667 32 62 c 1
 76 123 l 1
 100 103.666666667 124.666666667 88 150 76 c 128
 175.333333333 64 204.333333333 58 237 58 c 0
 273 58 299.833333333 66.1666666667 317.5 82.5 c 128
 335.166666667 98.8333333333 344 119 344 143 c 0
 344 161.666666667 337.833333333 177.166666667 325.5 189.5 c 128
 313.166666667 201.833333333 297.5 212.5 278.5 221.5 c 128
 259.5 230.5 240 238.666666667 220 246 c 0
 194.666666667 256 169.833333333 267.166666667 145.5 279.5 c 128
 121.166666667 291.833333333 101.166666667 307.833333333 85.5 327.5 c 128
 69.8333333333 347.166666667 62 372.333333333 62 403 c 0
 62 432.333333333 69.3333333333 458.5 84 481.5 c 128
 98.6666666667 504.5 120 522.833333333 148 536.5 c 128
 176 550.166666667 209.666666667 557 249 557 c 0
 282.333333333 557 313.5 551 342.5 539 c 128
 371.5 527 396.333333333 512.333333333 417 495 c 1
 373 438 l 1
 354.333333333 451.333333333 335.166666667 462.666666667 315.5 472 c 128
 295.833333333 481.333333333 274 486 250 486 c 0
 215.333333333 486 189.833333333 478.166666667 173.5 462.5 c 128
 157.166666667 446.833333333 149 428.333333333 149 407 c 0
 149 390.333333333 154.5 376.333333333 165.5 365 c 128
 176.5 353.666666667 191 344.166666667 209 336.5 c 128
 227 328.833333333 246 321 266 313 c 0
 286 305.666666667 305.833333333 297.666666667 325.5 289 c 128
 345.166666667 280.333333333 362.833333333 270 378.5 258 c 128
 394.166666667 246 406.833333333 231.166666667 416.5 213.5 c 128
 426.166666667 195.833333333 431 174 431 148 c 0
 431 118.666666667 423.5 91.6666666667 408.5 67 c 128
 393.5 42.3333333333 371.5 22.8333333333 342.5 8.5 c 128
 313.5 -5.83333333333 277.333333333 -13 234 -13 c 0
EndSplineSet
Substitution2: "NotoSansKR-Regular-'hwid' Half Widths lookup 35 subtable" s.hwid
Substitution2: "NotoSansKR-Regular-'fwid' Full Widths lookup 34 subtable" uniFF53
AlternateSubs2: "NotoSansKR-Regular-'aalt' Access All Alternates lookup 1 subtable" uniFF53 s.hwid
EndChar

StartChar: t
Encoding: 116 116 83
Width: 377
Flags: HW
LayerCount: 2
Fore
SplineSet
262 -13 m 0
 224 -13 193.666666667 -5.5 171 9.5 c 128
 148.333333333 24.5 132.166666667 45.6666666667 122.5 73 c 128
 112.833333333 100.333333333 108 132 108 168 c 2
 108 469 l 1
 27 469 l 1
 27 538 l 1
 113 543 l 1
 123 696 l 1
 199 696 l 1
 199 543 l 1
 347 543 l 1
 347 469 l 1
 199 469 l 1
 199 165 l 2
 199 132.333333333 205.166666667 106.833333333 217.5 88.5 c 128
 229.833333333 70.1666666667 251.666666667 61 283 61 c 0
 293 61 303.666666667 62.5 315 65.5 c 128
 326.333333333 68.5 336.333333333 72 345 76 c 1
 363 7 l 1
 347.666666667 1.66666666667 331.333333333 -3 314 -7 c 128
 296.666666667 -11 279.333333333 -13 262 -13 c 0
EndSplineSet
Substitution2: "NotoSansKR-Regular-'hwid' Half Widths lookup 35 subtable" t.hwid
Substitution2: "NotoSansKR-Regular-'fwid' Full Widths lookup 34 subtable" uniFF54
AlternateSubs2: "NotoSansKR-Regular-'aalt' Access All Alternates lookup 1 subtable" uniFF54 t.hwid
EndChar

StartChar: u
Encoding: 117 117 84
Width: 607
Flags: HW
LayerCount: 2
Fore
SplineSet
251 -13 m 0
 193.666666667 -13 151.5 5 124.5 41 c 128
 97.5 77 84 129.666666667 84 199 c 2
 84 543 l 1
 176 543 l 1
 176 210 l 2
 176 160 184 123.5 200 100.5 c 128
 216 77.5 242 66 278 66 c 0
 306 66 331 73.3333333333 353 88 c 128
 375 102.666666667 399 126 425 158 c 1
 425 543 l 1
 516 543 l 1
 516 0 l 1
 440 0 l 1
 433 85 l 1
 430 85 l 1
 404.666666667 55.6666666667 377.833333333 32 349.5 14 c 128
 321.166666667 -4 288.333333333 -13 251 -13 c 0
EndSplineSet
Substitution2: "NotoSansKR-Regular-'hwid' Half Widths lookup 35 subtable" u.hwid
Substitution2: "NotoSansKR-Regular-'fwid' Full Widths lookup 34 subtable" uniFF55
AlternateSubs2: "NotoSansKR-Regular-'aalt' Access All Alternates lookup 1 subtable" uniFF55 u.hwid
EndChar

StartChar: v
Encoding: 118 118 85
Width: 521
Flags: HW
LayerCount: 2
Fore
SplineSet
209 0 m 1
 13 543 l 1
 108 543 l 1
 210 234 l 2
 218.666666667 207.333333333 227.166666667 180.5 235.5 153.5 c 128
 243.833333333 126.5 252 100 260 74 c 1
 265 74 l 1
 273.666666667 100 282.166666667 126.5 290.5 153.5 c 128
 298.833333333 180.5 307 207.333333333 315 234 c 2
 418 543 l 1
 508 543 l 1
 316 0 l 1
 209 0 l 1
EndSplineSet
Substitution2: "NotoSansKR-Regular-'hwid' Half Widths lookup 35 subtable" v.hwid
Substitution2: "NotoSansKR-Regular-'fwid' Full Widths lookup 34 subtable" uniFF56
AlternateSubs2: "NotoSansKR-Regular-'aalt' Access All Alternates lookup 1 subtable" uniFF56 v.hwid
EndChar

StartChar: w
Encoding: 119 119 86
Width: 802
Flags: HW
LayerCount: 2
Fore
SplineSet
178 0 m 1
 27 543 l 1
 120 543 l 1
 201 229 l 2
 207 203 212.5 177.666666667 217.5 153 c 128
 222.5 128.333333333 227.666666667 103.333333333 233 78 c 1
 238 78 l 1
 244 103.333333333 249.833333333 128.333333333 255.5 153 c 128
 261.166666667 177.666666667 267.333333333 203 274 229 c 2
 359 543 l 1
 448 543 l 1
 533 229 l 2
 539.666666667 203 546.166666667 177.666666667 552.5 153 c 128
 558.833333333 128.333333333 565 103.333333333 571 78 c 1
 576 78 l 1
 581.333333333 103.333333333 586.666666667 128.333333333 592 153 c 128
 597.333333333 177.666666667 603 203 609 229 c 2
 688 543 l 1
 776 543 l 1
 629 0 l 1
 518 0 l 1
 440 293 l 2
 433.333333333 318.333333333 427 343.833333333 421 369.5 c 128
 415 395.166666667 409 421.666666667 403 449 c 1
 398 449 l 1
 392 421.666666667 386.166666667 395 380.5 369 c 128
 374.833333333 343 368.333333333 317 361 291 c 2
 284 0 l 1
 178 0 l 1
EndSplineSet
Substitution2: "NotoSansKR-Regular-'hwid' Half Widths lookup 35 subtable" w.hwid
Substitution2: "NotoSansKR-Regular-'fwid' Full Widths lookup 34 subtable" uniFF57
AlternateSubs2: "NotoSansKR-Regular-'aalt' Access All Alternates lookup 1 subtable" uniFF57 w.hwid
EndChar

StartChar: x
Encoding: 120 120 87
Width: 498
Flags: HW
LayerCount: 2
Fore
SplineSet
15 0 m 1
 194 283 l 1
 29 543 l 1
 128 543 l 1
 201 424 l 2
 209 408.666666667 217.5 393.5 226.5 378.5 c 128
 235.5 363.5 244.666666667 348.333333333 254 333 c 1
 259 333 l 1
 266.333333333 348.333333333 274.166666667 363.5 282.5 378.5 c 128
 290.833333333 393.5 299 408.666666667 307 424 c 2
 374 543 l 1
 469 543 l 1
 304 274 l 1
 483 0 l 1
 383 0 l 1
 303 127 l 2
 293.666666667 143.666666667 284.166666667 160.166666667 274.5 176.5 c 128
 264.833333333 192.833333333 254.666666667 208.666666667 244 224 c 1
 239 224 l 1
 230.333333333 208.666666667 221.5 192.833333333 212.5 176.5 c 128
 203.5 160.166666667 194 143.666666667 184 127 c 2
 111 0 l 1
 15 0 l 1
EndSplineSet
Substitution2: "NotoSansKR-Regular-'hwid' Half Widths lookup 35 subtable" x.hwid
Substitution2: "NotoSansKR-Regular-'fwid' Full Widths lookup 34 subtable" uniFF58
AlternateSubs2: "NotoSansKR-Regular-'aalt' Access All Alternates lookup 1 subtable" uniFF58 x.hwid
EndChar

StartChar: y
Encoding: 121 121 88
Width: 521
Flags: HW
LayerCount: 2
Fore
SplineSet
101 -234 m 0
 88.3333333333 -234 76.6666666667 -233 66 -231 c 128
 55.3333333333 -229 45.6666666667 -226.333333333 37 -223 c 1
 55 -150 l 1
 60.3333333333 -152 66.6666666667 -154 74 -156 c 128
 81.3333333333 -158 89 -159 97 -159 c 0
 127.666666667 -159 152.833333333 -147.833333333 172.5 -125.5 c 128
 192.166666667 -103.166666667 207.666666667 -75.3333333333 219 -42 c 2
 231 -1 l 1
 13 543 l 1
 108 543 l 1
 218 242 l 2
 226.666666667 218 235.5 192.666666667 244.5 166 c 128
 253.5 139.333333333 262.666666667 113.333333333 272 88 c 1
 277 88 l 1
 284.333333333 113.333333333 291.833333333 139.166666667 299.5 165.5 c 128
 307.166666667 191.833333333 314.333333333 217.333333333 321 242 c 2
 419 543 l 1
 508 543 l 1
 304 -46 l 2
 291.333333333 -81.3333333333 276 -113.166666667 258 -141.5 c 128
 240 -169.833333333 218.333333333 -192.333333333 193 -209 c 128
 167.666666667 -225.666666667 137 -234 101 -234 c 0
EndSplineSet
Substitution2: "NotoSansKR-Regular-'hwid' Half Widths lookup 35 subtable" y.hwid
Substitution2: "NotoSansKR-Regular-'fwid' Full Widths lookup 34 subtable" uniFF59
AlternateSubs2: "NotoSansKR-Regular-'aalt' Access All Alternates lookup 1 subtable" uniFF59 y.hwid
EndChar

StartChar: z
Encoding: 122 122 89
Width: 475
Flags: HW
LayerCount: 2
Fore
SplineSet
35 0 m 1
 35 49 l 1
 321 469 l 1
 66 469 l 1
 66 543 l 1
 437 543 l 1
 437 494 l 1
 150 74 l 1
 446 74 l 1
 446 0 l 1
 35 0 l 1
EndSplineSet
Substitution2: "NotoSansKR-Regular-'hwid' Half Widths lookup 35 subtable" z.hwid
Substitution2: "NotoSansKR-Regular-'fwid' Full Widths lookup 34 subtable" uniFF5A
AlternateSubs2: "NotoSansKR-Regular-'aalt' Access All Alternates lookup 1 subtable" uniFF5A z.hwid
EndChar

StartChar: braceleft
Encoding: 123 123 90
Width: 338
Flags: HW
LayerCount: 2
Fore
SplineSet
254 -170 m 2
 224.666666667 -170 200.333333333 -165.666666667 181 -157 c 128
 161.666666667 -148.333333333 147.333333333 -133.166666667 138 -111.5 c 128
 128.666666667 -89.8333333333 124 -60 124 -22 c 0
 124 5.33333333333 124.833333333 30.6666666667 126.5 54 c 128
 128.166666667 77.3333333333 129.833333333 100.333333333 131.5 123 c 128
 133.166666667 145.666666667 134 169.333333333 134 194 c 0
 134 209.333333333 131.166666667 223.5 125.5 236.5 c 128
 119.833333333 249.5 110.333333333 260.333333333 97 269 c 128
 83.6666666667 277.666666667 64 282 38 282 c 1
 38 340 l 1
 64 340 83.6666666667 344.333333333 97 353 c 128
 110.333333333 361.666666667 119.833333333 372.5 125.5 385.5 c 128
 131.166666667 398.5 134 412 134 426 c 0
 134 451.333333333 133.166666667 475.333333333 131.5 498 c 128
 129.833333333 520.666666667 128.166666667 543.666666667 126.5 567 c 128
 124.833333333 590.333333333 124 615.333333333 124 642 c 0
 124 700 134.833333333 739.5 156.5 760.5 c 128
 178.166666667 781.5 210.666666667 792 254 792 c 2
 304 792 l 1
 304 739 l 1
 275 739 l 2
 245 739 224.833333333 731 214.5 715 c 128
 204.166666667 699 199 673 199 637 c 0
 199 603 200 570.333333333 202 539 c 128
 204 507.666666667 205 472.666666667 205 434 c 0
 205 398 200 370.5 190 351.5 c 128
 180 332.5 162.666666667 319.666666667 138 313 c 1
 138 308 l 1
 162.666666667 301.333333333 180 288.333333333 190 269 c 128
 200 249.666666667 205 222.333333333 205 187 c 0
 205 149 204 114.166666667 202 82.5 c 128
 200 50.8333333333 199 18 199 -16 c 0
 199 -51.3333333333 204.166666667 -77.1666666667 214.5 -93.5 c 128
 224.833333333 -109.833333333 245 -118 275 -118 c 2
 304 -118 l 1
 304 -170 l 1
 254 -170 l 2
EndSplineSet
Substitution2: "NotoSansKR-Regular-'locl' Localized Forms lookup 39 subtable" braceleft.locl
Substitution2: "NotoSansKR-Regular-'hwid' Half Widths lookup 35 subtable" braceleft.hwid
Substitution2: "NotoSansKR-Regular-'fwid' Full Widths lookup 34 subtable" uniFF5B
AlternateSubs2: "NotoSansKR-Regular-'aalt' Access All Alternates lookup 1 subtable" uniFF5B braceleft.hwid
EndChar

StartChar: bar
Encoding: 124 124 91
Width: 270
Flags: HW
LayerCount: 2
Fore
SplineSet
103 -279 m 1
 103 838 l 1
 167 838 l 1
 167 -279 l 1
 103 -279 l 1
EndSplineSet
Substitution2: "NotoSansKR-Regular-'hwid' Half Widths lookup 35 subtable" uniFFE8
Substitution2: "NotoSansKR-Regular-'fwid' Full Widths lookup 34 subtable" uniFF5C
AlternateSubs2: "NotoSansKR-Regular-'aalt' Access All Alternates lookup 1 subtable" uniFF5C uniFFE8
EndChar

StartChar: braceright
Encoding: 125 125 92
Width: 338
Flags: HW
LayerCount: 2
Fore
SplineSet
34 -170 m 1
 34 -118 l 1
 63 -118 l 2
 93.6666666667 -118 114 -109.833333333 124 -93.5 c 128
 134 -77.1666666667 139 -51.3333333333 139 -16 c 0
 139 18 138.166666667 50.8333333333 136.5 82.5 c 128
 134.833333333 114.166666667 134 149 134 187 c 0
 134 222.333333333 139 249.666666667 149 269 c 128
 159 288.333333333 176 301.333333333 200 308 c 1
 200 313 l 1
 176 319.666666667 159 332.5 149 351.5 c 128
 139 370.5 134 398 134 434 c 0
 134 472.666666667 134.833333333 507.666666667 136.5 539 c 128
 138.166666667 570.333333333 139 603 139 637 c 0
 139 673 134 699 124 715 c 128
 114 731 93.6666666667 739 63 739 c 2
 34 739 l 1
 34 792 l 1
 84 792 l 2
 128 792 160.833333333 781.5 182.5 760.5 c 128
 204.166666667 739.5 215 700 215 642 c 0
 215 615.333333333 214.166666667 590.333333333 212.5 567 c 128
 210.833333333 543.666666667 209.166666667 520.666666667 207.5 498 c 128
 205.833333333 475.333333333 205 451.333333333 205 426 c 0
 205 412 207.666666667 398.5 213 385.5 c 128
 218.333333333 372.5 228 361.666666667 242 353 c 128
 256 344.333333333 275.333333333 340 300 340 c 1
 300 282 l 1
 275.333333333 282 256 277.666666667 242 269 c 128
 228 260.333333333 218.333333333 249.5 213 236.5 c 128
 207.666666667 223.5 205 209.333333333 205 194 c 0
 205 169.333333333 205.833333333 145.666666667 207.5 123 c 128
 209.166666667 100.333333333 210.833333333 77.3333333333 212.5 54 c 128
 214.166666667 30.6666666667 215 5.33333333333 215 -22 c 0
 215 -79.3333333333 204.166666667 -118.333333333 182.5 -139 c 128
 160.833333333 -159.666666667 128 -170 84 -170 c 2
 34 -170 l 1
EndSplineSet
Substitution2: "NotoSansKR-Regular-'locl' Localized Forms lookup 39 subtable" braceright.locl
Substitution2: "NotoSansKR-Regular-'hwid' Half Widths lookup 35 subtable" braceright.hwid
Substitution2: "NotoSansKR-Regular-'fwid' Full Widths lookup 34 subtable" uniFF5D
AlternateSubs2: "NotoSansKR-Regular-'aalt' Access All Alternates lookup 1 subtable" uniFF5D braceright.hwid
EndChar

StartChar: asciitilde
Encoding: 126 126 93
Width: 555
Flags: HW
LayerCount: 2
Fore
SplineSet
376 287 m 0
 354 287 334.166666667 291.833333333 316.5 301.5 c 128
 298.833333333 311.166666667 282.333333333 322.166666667 267 334.5 c 128
 251.666666667 346.833333333 236.833333333 357.833333333 222.5 367.5 c 128
 208.166666667 377.166666667 193 382 177 382 c 256
 161 382 146 376.666666667 132 366 c 128
 118 355.333333333 104.666666667 338 92 314 c 1
 41 350 l 1
 61 385.333333333 83.1666666667 411 107.5 427 c 128
 131.833333333 443 156 451 180 451 c 0
 202 451 221.833333333 446.166666667 239.5 436.5 c 128
 257.166666667 426.833333333 273.5 415.833333333 288.5 403.5 c 128
 303.5 391.166666667 318.166666667 380.166666667 332.5 370.5 c 128
 346.833333333 360.833333333 362 356 378 356 c 256
 394 356 409.166666667 361.166666667 423.5 371.5 c 128
 437.833333333 381.833333333 451.333333333 399.333333333 464 424 c 1
 515 387 l 1
 495 352.333333333 472.833333333 327 448.5 311 c 128
 424.166666667 295 400 287 376 287 c 0
EndSplineSet
Substitution2: "NotoSansKR-Regular-'locl' Localized Forms lookup 39 subtable" asciitilde.locl
Substitution2: "NotoSansKR-Regular-'hwid' Half Widths lookup 35 subtable" asciitilde.hwid
Substitution2: "NotoSansKR-Regular-'fwid' Full Widths lookup 34 subtable" uni301C
AlternateSubs2: "NotoSansKR-Regular-'aalt' Access All Alternates lookup 1 subtable" uni301C asciitilde.hwid
EndChar

StartChar: u20FD2
Encoding: 135122 135122 94
Width: 1000
Flags: HW
LayerCount: 2
Fore
SplineSet
109 734 m 5
 293 734 l 5
 293 202 l 5
 109 202 l 5
 109 270 l 5
 234 270 l 5
 234 666 l 5
 109 666 l 5
 109 734 l 5
73 734 m 5
 131 734 l 5
 131 120 l 5
 73 120 l 5
 73 734 l 5
384 287 m 1
 433 287 l 1
 433 -31 l 1
 384 -31 l 1
 384 287 l 1
496 216 m 1
 527 241 l 1
 540.333333333 224.333333333 553.666666667 206.166666667 567 186.5 c 128
 580.333333333 166.833333333 590.333333333 149.666666667 597 135 c 1
 562 107 l 1
 556 122.333333333 546.833333333 140.333333333 534.5 161 c 128
 522.166666667 181.666666667 509.333333333 200 496 216 c 1
440 599 m 1
 440 511 l 1
 588 511 l 1
 588 599 l 1
 440 599 l 1
440 739 m 1
 440 652 l 1
 588 652 l 1
 588 739 l 1
 440 739 l 1
383 794 m 1
 647 794 l 1
 647 455 l 1
 383 455 l 1
 383 794 l 1
430 385 m 1
 640 385 l 1
 640 329 l 1
 430 329 l 1
 430 385 l 1
407 82 m 1
 586 82 l 1
 586 31 l 1
 407 31 l 1
 407 82 l 1
723 636 m 1
 922 636 l 1
 922 575 l 1
 723 575 l 1
 723 636 l 1
619 385 m 1
 679 385 l 1
 679 385 679 385 679 374 c 128
 679 363 679 363 679 356 c 0
 676.333333333 284.666666667 673.666666667 224.666666667 671 176 c 128
 668.333333333 127.333333333 665.5 87.6666666667 662.5 57 c 128
 659.5 26.3333333333 656 2.5 652 -14.5 c 128
 648 -31.5 643 -43.6666666667 637 -51 c 0
 631 -60.3333333333 624 -66.8333333333 616 -70.5 c 128
 608 -74.1666666667 598.666666667 -76.6666666667 588 -78 c 0
 580 -78.6666666667 569.666666667 -79 557 -79 c 128
 544.333333333 -79 531.666666667 -78.6666666667 519 -78 c 1
 518.333333333 -70 516.666666667 -60.6666666667 514 -50 c 128
 511.333333333 -39.3333333333 508 -30 504 -22 c 1
 516.666666667 -23.3333333333 528.333333333 -24.1666666667 539 -24.5 c 128
 549.666666667 -24.8333333333 557.333333333 -25 562 -25 c 0
 568 -25.6666666667 572.833333333 -25.1666666667 576.5 -23.5 c 128
 580.166666667 -21.8333333333 583.333333333 -18.3333333333 586 -13 c 0
 592 -6.33333333333 596.666666667 10 600 36 c 128
 603.333333333 62 606.666666667 102 610 156 c 128
 613.333333333 210 616.333333333 282.333333333 619 373 c 1
 619 385 l 1
904 636 m 1
 914 636 l 1
 925 638 l 1
 964 629 l 1
 961.333333333 602.333333333 957.5 574.5 952.5 545.5 c 128
 947.5 516.5 942.333333333 489 937 463 c 128
 931.666666667 437 926 414 920 394 c 1
 871 407 l 1
 875.666666667 425.666666667 880.166666667 447.333333333 884.5 472 c 128
 888.833333333 496.666666667 892.666666667 522.333333333 896 549 c 128
 899.333333333 575.666666667 902 600.666666667 904 624 c 2
 904 636 l 1
501 309 m 1
 547 309 l 1
 543.666666667 268.333333333 535.833333333 229.166666667 523.5 191.5 c 128
 511.166666667 153.833333333 492 123.333333333 466 100 c 1
 462.666666667 104.666666667 457.833333333 110 451.5 116 c 128
 445.166666667 122 439.333333333 126.666666667 434 130 c 1
 456 149.333333333 472.166666667 175.5 482.5 208.5 c 128
 492.833333333 241.5 499 275 501 309 c 1
443 478 m 1
 503 466 l 1
 490.333333333 417.333333333 472.166666667 371.333333333 448.5 328 c 128
 424.833333333 284.666666667 398.333333333 248 369 218 c 1
 365.666666667 222 361 226.5 355 231.5 c 128
 349 236.5 342.666666667 241.5 336 246.5 c 128
 329.333333333 251.5 323.666666667 255 319 257 c 1
 347.666666667 284.333333333 372.666666667 317 394 355 c 128
 415.333333333 393 431.666666667 434 443 478 c 1
766 597 m 1
 826 597 l 1
 826 418 l 2
 826 383.333333333 824.333333333 345 821 303 c 128
 817.666666667 261 811 217.666666667 801 173 c 128
 791 128.333333333 775.5 84.3333333333 754.5 41 c 128
 733.5 -2.33333333333 705 -43 669 -81 c 1
 664.333333333 -75 657.5 -68.1666666667 648.5 -60.5 c 128
 639.5 -52.8333333333 631 -46.3333333333 623 -41 c 1
 657 -7 683.5 30 702.5 70 c 128
 721.5 110 735.5 150.833333333 744.5 192.5 c 128
 753.5 234.166666667 759.333333333 274.5 762 313.5 c 128
 764.666666667 352.5 766 387.666666667 766 419 c 2
 766 597 l 1
823 407 m 1
 831 347 841.5 288.333333333 854.5 231 c 128
 867.5 173.666666667 884.333333333 122 905 76 c 128
 925.666666667 30 950 -6 978 -32 c 1
 972 -38 964.333333333 -45.8333333333 955 -55.5 c 128
 945.666666667 -65.1666666667 938.333333333 -74.3333333333 933 -83 c 1
 903.666666667 -52.3333333333 878.666666667 -12 858 38 c 128
 837.333333333 88 820.5 144 807.5 206 c 128
 794.5 268 784 332 776 398 c 1
 823 407 l 1
718 839 m 1
 783 830 l 1
 778.333333333 783.333333333 771.666666667 733 763 679 c 128
 754.333333333 625 742.833333333 572.5 728.5 521.5 c 128
 714.166666667 470.5 696 425 674 385 c 1
 668.666666667 391.666666667 661.833333333 399.5 653.5 408.5 c 128
 645.166666667 417.5 637.666666667 424.666666667 631 430 c 1
 649.666666667 466.666666667 664.833333333 508.833333333 676.5 556.5 c 128
 688.166666667 604.166666667 697.333333333 652.833333333 704 702.5 c 128
 710.666666667 752.166666667 715.333333333 797.666666667 718 839 c 1
EndSplineSet
EndChar

StartChar: u21C41
Encoding: 138305 138305 95
Width: 1000
Flags: HW
LayerCount: 2
Fore
SplineSet
300 252 m 1
 951 252 l 1
 951 185 l 1
 300 185 l 1
 300 252 l 1
435 549 m 1
 509 533 l 1
 493.666992188 475.666992188 434 359 370 322 c 128
 370 322 l 1
 366 326 360 330.5 352 335.5 c 128
 344 340.5 335.833333333 345.5 327.5 350.5 c 128
 319.166666667 355.5 312 359.666666667 306 363 c 1
 306 363 l 128
 388 418 422.333007812 497 435 549 c 1
583 414 m 1
 659 414 l 1
 658 329 l 2
 657.682062232 301.975289699 655.833333333 273.333333333 651.5 244 c 128
 647.166666667 214.666666667 638.5 185.333333333 625.5 156 c 128
 612.5 126.666666667 593.666666667 97.8333333333 569 69.5 c 128
 544.333333333 41.1666666667 511.666666667 14.1666666667 471 -11.5 c 128
 430.333333333 -37.1666666667 379.666666667 -61 319 -83 c 1
 316.333333333 -77 312.166666667 -70.6666666667 306.5 -64 c 128
 300.833333333 -57.3333333333 294.833333333 -50.5 288.5 -43.5 c 128
 282.166666667 -36.5 276 -30.6666666667 270 -26 c 1
 327.333333333 -6.66666666667 375 14.5 413 37.5 c 128
 451 60.5 481.333333333 84.3333333333 504 109 c 128
 526.666666667 133.666666667 543.666666667 158.666666667 555 184 c 128
 566.333333333 209.333333333 573.666666667 234.333333333 577 259 c 128
 580.333333333 283.666666667 581.733259612 307.59380737 582 330 c 2
 583 414 l 1
674 226 m 1
 694.108990969 147.361554476 738 55 776 36.5 c 128
 820.177750259 14.9924110583 888.666666667 3 970 -17 c 1
 964.666666667 -22.3333333333 958.833333333 -28.8333333333 952.5 -36.5 c 128
 946.166666667 -44.1666666667 940.333333333 -52 935 -60 c 128
 929.666666667 -68 925.333333333 -75.3333333333 922 -82 c 1
 862 -72 818.758789062 -61.345703125 772 -40 c 128
 726 -19 699.666992188 9.8330078125 673 55.5 c 128
 646.333007812 101.166992188 625.333007812 154 610 214 c 1
 674 226 l 1
433 437 m 1
 917 437 l 1
 917 370 l 1
 413 370 l 1
 433 437 l 1
145 789 m 5
 220 789 l 5
 220 510 l 6
 220 466.666666667 218.666666667 419.666666667 216 369 c 132
 213.333333333 318.333333333 208 266.5 200 213.5 c 132
 192 160.5 180.333333333 108.833333333 165 58.5 c 132
 149.666666667 8.16666666667 129 -38 103 -80 c 5
 98.3333333333 -76 92 -71.3333333333 84 -66 c 132
 76 -60.6666666667 67.8333333333 -55.8333333333 59.5 -51.5 c 132
 51.1666666667 -47.1666666667 43.6666666667 -44 37 -42 c 5
 61.6666666667 -2 81.3333333333 41.6666666667 96 89 c 132
 110.666666667 136.333333333 121.5 184.5 128.5 233.5 c 132
 135.5 282.5 140 330.666666667 142 378 c 132
 144 425.333333333 145 469.333333333 145 510 c 6
 145 789 l 5
186 789 m 5
 887 789 l 5
 888 573 l 5
 187 573 l 5
 187 636 l 5
 813 636 l 5
 812 726 l 5
 186 726 l 5
 186 789 l 5
EndSplineSet
EndChar

StartChar: u21C41
Encoding: 138305 138305 96
Width: 1000
Flags: HW
LayerCount: 2
Fore
SplineSet
137 794 m 5
 880 794 l 5
 880 543 l 5
 211 543 l 5
 211 504 l 6
 211 247.333333333 171.666666667 57.6666666667 93 -65 c 5
 73.6666666667 -49 52.3333333333 -36.6666666667 29 -28 c 5
 52.3333333333 8 72 49.3333333333 88 96 c 4
 121.333333333 193.333333333 137.666666667 329.333333333 137 504 c 6
 137 794 l 5
525 388 m 5
 383 388 l 5
 352.333333333 338.666666667 319.666666667 298.333333333 285 267 c 5
 260.333333333 282.333333333 236.666666667 293.666666667 214 301 c 5
 284 357.666666667 336.666666667 436.333333333 372 537 c 5
 372 539 l 5
 409.333333333 531.666666667 434.666666667 527 448 525 c 5
 439.333333333 499 429.333333333 474.666666667 418 452 c 5
 866 452 l 5
 866 388 l 5
 600 388 l 5
 600 300.666666667 599.666666667 256.333333333 599 255 c 5
 923 255 l 5
 923 190 l 5
 626 190 l 5
 678 72.6666666667 785 1.33333333333 947 -24 c 5
 921.666666667 -44 904.333333333 -63.6666666667 895 -83 c 5
 797.666666667 -64.3333333333 718 -26.6666666667 656 30 c 4
 621.333333333 62 594 98.6666666667 574 140 c 5
 530 38.6666666667 419.333333333 -36.3333333333 242 -85 c 5
 233.333333333 -65 217.333333333 -47 194 -31 c 5
 284.666666667 -6.33333333333 356 23.3333333333 408 58 c 132
 460 92.6666666667 494.666666667 136.666666667 512 190 c 5
 217 190 l 5
 217 255 l 5
 524 255 l 6
 524.666666667 256.333333333 525 300.666666667 525 388 c 5
211 609 m 5
 807 609 l 5
 807 728 l 5
 211 728 l 5
 211 609 l 5
EndSplineSet
EndChar

StartChar: u21CB0
Encoding: 138416 138416 97
Width: 1000
Flags: HW
LayerCount: 2
Fore
SplineSet
217 643 m 5
 810 643 l 5
 810 733 l 5
 217 733 l 5
 217 643 l 5
816 363 m 5
 769.333333333 392.333333333 728.333333333 428.666666667 693 472 c 5
 657.666666667 430 617.666666667 393.666666667 573 363 c 5
 816 363 l 5
141 794 m 5
 885 794 l 5
 885 582 l 5
 217 582 l 5
 217 501 l 6
 217 349 203 218 175 108 c 4
 157.666666667 40 131.666666667 -21.6666666667 97 -77 c 5
 77.6666666667 -62.3333333333 55.6666666667 -49.6666666667 31 -39 c 5
 89 55 123.333333333 176 134 324 c 4
 138 388 140.333333333 446.666666667 141 500 c 6
 141 794 l 5
222 397 m 5
 290 445 345 500 387 562 c 5
 448 536 l 5
 395.333333333 462 333 398.333333333 261 345 c 5
 250.333333333 363.666666667 237.333333333 381 222 397 c 5
435 8 m 5
 484.333333333 48 522.666666667 97.3333333333 550 156 c 5
 611 138 l 5
 577.666666667 68.6666666667 536 11.3333333333 486 -34 c 5
 471.333333333 -20 454.333333333 -6 435 8 c 5
636 4 m 132
 655.333333333 4 665.333333333 4.33333333333 666 5 c 132
 666.666666667 5.66666666667 667 64 667 180 c 5
 476 180 l 5
 476 243 l 5
 667 243 l 5
 667 299 l 5
 542 299 l 5
 542 343 l 5
 524 331.666666667 505 321.333333333 485 312 c 5
 475.666666667 329.333333333 463.333333333 346 448 362 c 5
 432 337.333333333 415 314 397 292 c 5
 397 -57 l 5
 331 -57 l 5
 331 217 l 5
 305.666666667 191 279 166.666666667 251 144 c 5
 239 164 224.666666667 183.666666667 208 203 c 5
 288 262.333333333 355 335.666666667 409 423 c 5
 470 397 l 5
 465.333333333 389 460.333333333 381.333333333 455 374 c 5
 499 394 541.333333333 419.666666667 582 451 c 132
 622.666666667 482.333333333 656 519.333333333 682 562 c 5
 740 537 l 5
 734.666666667 529 729.666666667 521.333333333 725 514 c 5
 736 508 l 5
 753.333333333 485.333333333 782 461.333333333 822 436 c 132
 862 410.666666667 906.666666667 391 956 377 c 5
 936 357 920.333333333 336.666666667 909 316 c 5
 891 323.333333333 873.666666667 331 857 339 c 5
 857 299 l 5
 732 299 l 5
 732 243 l 5
 918 243 l 5
 918 180 l 5
 732 180 l 5
 732 12 l 6
 732 -20 722.333333333 -39.6666666667 703 -47 c 4
 685.666666667 -54.3333333333 650.333333333 -58 597 -58 c 5
 593 -38.6666666667 585.333333333 -17.3333333333 574 6 c 5
 596 4.66666666667 616.666666667 4 636 4 c 132
776 130 m 5
 829 156 l 5
 872.333333333 102 907.333333333 50.6666666667 934 2 c 5
 879 -29 l 5
 857.666666667 14.3333333333 823.333333333 67.3333333333 776 130 c 5
EndSplineSet
EndChar

StartChar: u2213C
Encoding: 139580 139580 98
Width: 1000
Flags: HW
LayerCount: 2
Fore
SplineSet
52 351 m 5
 111.333333333 366.333333333 169.333333333 387.333333333 226 414 c 132
 282.666666667 440.666666667 328.666666667 471.333333333 364 506 c 5
 427 478 l 5
 387 438 337.666666667 402.666666667 279 372 c 132
 220.333333333 341.333333333 159.666666667 316.333333333 97 297 c 5
 84.3333333333 315.666666667 69.3333333333 333.666666667 52 351 c 5
382 787 m 5
 313.333333333 733 222.333333333 686.666666667 109 648 c 5
 95.6666666667 666 80.3333333333 682.666666667 63 698 c 5
 107.666666667 710 153.333333333 726.666666667 200 748 c 132
 246.666666667 769.333333333 286.333333333 792 319 816 c 5
 382 787 l 5
75 538 m 5
 195.666666667 573.333333333 286 617.333333333 346 670 c 5
 406 642 l 5
 326 574 230.666666667 523 120 489 c 5
 107.333333333 505.666666667 92.3333333333 522 75 538 c 5
467 405 m 5
 467 707 l 5
 628 707 l 5
 633.333333333 721.666666667 638.333333333 736 643 750 c 5
 417 750 l 5
 417 805 l 5
 949 805 l 5
 949 750 l 5
 714 750 l 5
 706.666666667 734.666666667 699.666666667 720.333333333 693 707 c 5
 901 707 l 5
 901 405 l 5
 797 405 l 5
 857 382.333333333 911 358.333333333 959 333 c 5
 915 292 l 5
 861.666666667 320.666666667 798 349.333333333 724 378 c 5
 755 405 l 5
 586 405 l 5
 629 387 l 5
 564.333333333 344.333333333 491.333333333 312.333333333 410 291 c 5
 398.666666667 307.666666667 386 323 372 337 c 5
 444 353 505.666666667 375.666666667 557 405 c 5
 467 405 l 5
536 446 m 5
 830 446 l 5
 830 493 l 5
 536 493 l 5
 536 446 l 5
536 533 m 5
 830 533 l 5
 830 579 l 5
 536 579 l 5
 536 533 l 5
536 620 m 5
 830 620 l 5
 830 665 l 5
 536 665 l 5
 536 620 l 5
738 49 m 6
 769 49 l 6
 781 49.6666666667 787 51 787 53 c 6
 787 178 l 5
 548 178 l 5
 548 -78 l 5
 469 -78 l 5
 469 178 l 5
 245 178 l 5
 245 -18 l 5
 168 -18 l 5
 168 238 l 5
 469 238 l 5
 469 291 l 5
 548 291 l 5
 548 238 l 5
 866 238 l 5
 866 53 l 6
 866 23.6666666667 851.333333333 5 822 -3 c 4
 792.666666667 -8.33333333333 738.666666667 -11 660 -11 c 5
 656.666666667 4.33333333333 644 24.6666666667 622 50 c 5
 673.333333333 49.3333333333 712 49 738 49 c 6
EndSplineSet
EndChar

StartChar: u22234
Encoding: 139828 139828 99
Width: 1000
Flags: HW
LayerCount: 2
Fore
SplineSet
126 457 m 6
 126 737 l 5
 513 737 l 5
 501.666666667 762.333333333 487.666666667 789.666666667 471 819 c 5
 542 840 l 5
 564.666666667 804 582.666666667 769.666666667 596 737 c 5
 950 737 l 5
 950 668 l 5
 198 668 l 5
 198 457 l 6
 198 315.666666667 186 194.333333333 162 93 c 4
 147.333333333 30.3333333333 124.666666667 -26.6666666667 94 -78 c 5
 74.6666666667 -61.3333333333 53 -48 29 -38 c 5
 80.3333333333 47.3333333333 110.666666667 158.666666667 120 296 c 4
 124 354.666666667 126 408.333333333 126 457 c 6
213 -23 m 5
 276.333333333 27 327.333333333 84.3333333333 366 149 c 5
 438 124 l 5
 391.333333333 53.3333333333 334 -10.6666666667 266 -68 c 5
 248.666666667 -50 231 -35 213 -23 c 5
402 250 m 5
 778 250 l 5
 778 374 l 5
 402 374 l 5
 402 250 l 5
501 -27 m 132
 529.666666667 -27 545 -26 547 -24 c 132
 549 -22 550 -18.3333333333 550 -13 c 6
 550 194 l 5
 333 194 l 5
 333 431 l 5
 851 431 l 5
 851 194 l 5
 625 194 l 5
 625 -17 l 6
 625 -51.6666666667 611.666666667 -72.3333333333 585 -79 c 4
 565 -84.3333333333 531.666666667 -87 485 -87 c 6
 433 -87 l 5
 428.333333333 -66.3333333333 421 -46 411 -26 c 5
 442.333333333 -26.6666666667 472.333333333 -27 501 -27 c 132
944 554 m 5
 944 492 l 5
 240 492 l 5
 240 554 l 5
 561 554 l 5
 548.333333333 580.666666667 533 607.666666667 515 635 c 5
 580 656 l 5
 605.333333333 620 626 586 642 554 c 5
 944 554 l 5
726 116 m 5
 784 150 l 5
 850 87.3333333333 903.333333333 29.3333333333 944 -24 c 5
 881 -67 l 5
 840.333333333 -7.66666666667 788.666666667 53.3333333333 726 116 c 5
EndSplineSet
EndChar

StartChar: u223C6
Encoding: 140230 140230 100
Width: 1000
Flags: HW
LayerCount: 2
Fore
SplineSet
546 44 m 5
 843 44 l 5
 843 272 l 5
 546 272 l 5
 546 44 l 5
214 6 m 132
 234 6 247.333333333 9.33333333333 254 16 c 4
 277.333333333 35.3333333333 297 119.333333333 313 268 c 5
 95 268 l 5
 95 271 l 5
 62 271 l 5
 77.3333333333 359 90 455.333333333 100 560 c 5
 322 560 l 5
 322 721 l 5
 76 721 l 5
 76 790 l 5
 390 790 l 5
 390 491 l 5
 160 491 l 5
 154 436.333333333 147.333333333 384.666666667 140 336 c 5
 389 336 l 5
 371 121.333333333 344.666666667 -2 310 -34 c 5
 292.666666667 -54 269 -64 239 -64 c 4
 229 -65.3333333333 213.666666667 -66 193 -66 c 132
 172.333333333 -66 145 -64.6666666667 111 -62 c 5
 109 -36.6666666667 102 -12 90 12 c 5
 152.666666667 8 194 6 214 6 c 132
475 -79 m 5
 475 341 l 5
 648 341 l 5
 648 553 l 5
 435 553 l 5
 435 623 l 5
 648 623 l 5
 648 836 l 5
 721 836 l 5
 721 623 l 5
 960 623 l 5
 960 553 l 5
 721 553 l 5
 721 342 l 5
 918 342 l 5
 918 -71 l 5
 843 -71 l 5
 843 -25 l 5
 546 -25 l 5
 546 -79 l 5
 475 -79 l 5
EndSplineSet
EndChar
